<?xml version="1.0" encoding="UTF-8"?>
<svg width="460px" height="537px" viewBox="0 0 460 537" version="1.1" xmlns="http://www.w3.org/2000/svg" xmlns:xlink="http://www.w3.org/1999/xlink">
    <!-- Generator: Sketch 52.6 (67491) - http://www.bohemiancoding.com/sketch -->
    <title>southAmerica</title>
    <desc>Created with Sketch.</desc>
    <g id="Page-1" stroke="none" stroke-width="1" fill="none" fill-rule="evenodd">
        <g id="southAmerica" transform="translate(-1.503906, -1.356338)" fill-rule="nonzero">
            <g id="g2412" transform="translate(231.480000, 269.240000) scale(-1, 1) rotate(-180.000000) translate(-231.480000, -269.240000) translate(0.480000, 0.740000)">
                <g id="g6221" transform="translate(0.750000, 0.250000)">
                    <path d="M177.55,535.2375 L176.95,534.9375 L172.4875,534.9375 L171.6,534.6375 L172.4875,534.6375 L170.4,534.35 L167.1375,534.05 L168.325,533.75 L163.8625,533.45 L161.1875,533.15 L158.5,532.5625 L165.35,533.15 L165.65,533.45 L167.1375,533.15 L168.025,533.45 L168.625,533.15 L169.2125,533.15 L170.1125,532.8625 L181.4125,532.8625 L176.0625,533.45 L178.4375,533.45 L178.1375,533.75 L184.0875,533.15 L183.4875,533.75 L184.975,533.45 L184.975,534.05 L184.3875,534.05 L183.2,534.35 L181.7125,534.05 L181.1125,534.35 L180.225,534.6375 L178.4375,534.35 L178.4375,534.6375 L180.225,534.6375 L180.8125,534.6375 L179.625,534.9375 L181.7125,534.9375 L182.9,534.6375 L184.0875,534.9375 L183.2,534.6375 L186.175,534.9375 L183.7875,534.6375 L187.3625,534.35 L187.6625,534.9375 L189.15,534.6375 L188.85,534.9375 L189.15,534.9375 L189.15,535.2375 L187.3625,534.9375 L188.55,535.2375 L187.95,535.2375 L187.0625,535.2375 L185.875,535.2375 L183.7875,535.2375 L183.2,535.2375 L182.9,535.2375 L182.3,535.2375 L177.55,535.2375 Z M189.15,534.9375 L190.6375,534.9375 L191.525,534.9375 L191.825,534.9375 L190.6375,535.2375 L189.15,534.9375 Z M205.5125,535.2375 L207.2875,534.9375 L207.8875,534.9375 L206.1,535.1875 L205.5125,535.2375 Z M206.1,535.1875 L206.35,535.1875 L205.8,535.2375 L206.1,535.1875 Z M206.35,535.1875 L208.4875,534.9375 L208.775,534.9375 L209.075,534.9375 L211.1625,534.6375 L205.2125,534.9375 L208.4875,534.6375 L206.7,534.6375 L209.975,534.35 L211.1625,534.35 L212.65,534.05 L208.775,534.35 L209.975,534.05 L210.5625,533.75 L211.1625,533.75 L212.65,533.75 L212.95,533.75 L212.05,534.05 L215.325,533.45 L212.65,533.75 L213.8875,533.5 L214.4375,533.45 L214.1375,533.45 L212.95,533.45 L212.05,533.45 L214.1375,533.15 L212.95,533.15 L215.325,532.8625 L215.025,532.5625 L216.2125,532.8625 L215.325,532.5625 L217.7,532.2625 L217.1125,531.9625 L218.9,531.9625 L218.3,531.6625 L218.9,531.6625 L221.575,531.375 L222.4625,530.775 L227.525,530.775 L225.7375,530.475 L227.225,530.475 L228.1125,530.475 L228.4125,530.175 L229.3125,530.175 L228.7125,529.8875 L229.9,529.8875 L229.9,529.5875 L230.675,529.8375 L230.5,529.8875 L230.725,529.8625 L230.8,529.8875 L231.0375,529.8375 L233.475,529.5875 L231.6875,530.175 L233.175,530.175 L231.6875,530.475 L233.175,530.475 L230.5,531.075 L232.575,530.775 L229.9,531.375 L232.575,531.075 L231.3875,531.375 L233.175,531.075 L231.3875,531.6625 L233.175,531.375 L233.775,531.375 L231.6875,531.6625 L234.0625,531.375 L233.175,531.6625 L230.8,532.2625 L232.575,531.9625 L232.2875,532.2625 L235.25,531.6625 L234.3625,531.9625 L235.85,531.9625 L234.9625,532.2625 L233.475,532.2625 L232.575,532.5625 L231.6875,532.5625 L231.0875,532.8625 L230.2,532.8625 L229.3125,532.8625 L228.8625,533 L228.7125,533.15 L227.825,533.15 L226.925,533.45 L226.625,533.45 L225.1375,533.45 L224.55,533.75 L221.875,533.75 L221.275,534.05 L219.4875,534.05 L218.6,534.35 L216.2125,534.35 L215.325,534.6375 L212.95,534.6375 L212.05,534.9375 L210.5625,534.9375 L209.975,534.9375 L209.675,534.9375 L206.35,535.1875 Z M235.85,531.9625 L235.55,531.6625 L236.7375,531.6625 L237.0375,531.6625 L238.825,531.375 L237.9375,531.6625 L237.3375,531.6625 L236.45,531.9625 L235.85,531.9625 Z M237.9375,531.6625 L238.625,531.475 L238.225,531.6625 L237.9375,531.6625 Z M238.625,531.475 L238.825,531.375 L238.975,531.375 L238.625,531.475 Z M238.975,531.375 L239.075,531.35 L239.1,531.35 L239.8375,531.275 L239.7125,531.375 L238.975,531.375 Z M239.7125,531.375 L239.9625,531.25 L239.8375,531.25 L240.0125,531.225 L240.3125,531.075 L241.2,531.075 L241.8,530.775 L242.55,530.775 L241.5,531.075 L240.8375,531.15 L239.7125,531.375 Z M242.55,530.775 L243.5875,530.475 L242.9875,530.775 L242.55,530.775 Z M242.9875,530.775 L243.3625,530.7 L243.2875,530.775 L242.9875,530.775 Z M243.3625,530.7 L243.5875,530.475 L244.475,530.475 L243.3625,530.7 Z M244.475,530.475 L245.125,530.35 L244.775,530.475 L244.475,530.475 Z M245.125,530.35 L245.6625,530.175 L246.1125,530.175 L245.125,530.35 Z M246.1125,530.175 L246.3375,530.125 L246.2625,530.175 L246.1125,530.175 Z M246.3375,530.125 L246.8625,529.8875 L247.75,529.8875 L246.3375,530.125 Z M247.75,529.8875 L248.35,529.5875 L248.7875,529.5875 L247.75,529.8875 Z M248.7875,529.5875 L249.8375,529.2875 L248.9375,529.5875 L248.7875,529.5875 Z M239.8375,531.25 L239.1,531.35 L240.0125,531.075 L239.8375,531.25 Z M231.0375,529.8375 L230.725,529.8625 L230.675,529.8375 L233.475,529.2875 L231.0375,529.8375 Z M214.1375,533.45 L213.8875,533.5 L211.1625,533.75 L214.1375,533.45 Z M211.1625,534.6375 L208.4875,534.9375 L207.8875,534.9375 L211.1625,534.6375 Z M168.9125,534.6375 L168.325,534.35 L170.1125,534.6375 L168.9125,534.6375 Z M170.1125,534.6375 L168.625,534.35 L170.7,534.6375 L170.1125,534.6375 Z M165.9375,534.35 L165.65,534.05 L166.5375,534.35 L165.9375,534.35 Z M165.65,534.05 L163.8625,533.75 L166.8375,534.05 L168.025,534.35 L165.65,534.05 Z M158.2125,533.45 L158.1375,533.375 L158.8,533.45 L158.2125,533.45 Z M158.2125,533.45 L156.125,533.15 L157.7375,533.325 L158.2125,533.45 Z M157.7375,533.325 L157.0125,533.15 L158.0375,533.275 L158.1375,533.375 L157.7375,533.325 Z M158.0375,533.275 L157.9125,533.15 L159.4,533.45 L158.0375,533.275 Z M157.0125,533.15 L156.125,533.15 L154.0375,532.8625 L153.45,532.5625 L157.0125,533.15 Z M153.45,532.5625 L151.9625,532.5625 L150.175,532.2625 L148.0875,531.6625 L146.0125,531.375 L147.875,531.6125 L146.9,531.375 L142.7375,530.175 L139.7625,529.5875 L143.0375,530.175 L142.7375,529.8875 L148.6875,531.375 L148.9875,531.075 L151.3625,531.375 L153.75,531.6625 L152.55,531.6625 L150.475,531.375 L151.3625,531.6625 L149.575,531.6625 L148.2875,531.6625 L149.4375,531.8125 L149.575,531.6625 L150.775,531.9625 L150.475,531.9625 L149.2875,531.9625 L151.6625,532.2625 L153.45,532.5625 Z M146.9,531.375 L146.0125,531.375 L146.3125,531.475 L143.925,531.075 L144.325,531.275 L143.3375,531.075 L143.0375,531.075 L142.4375,530.775 L141.55,530.775 L141.3,530.65 L141.25,530.625 L140.95,530.475 L140.65,530.475 L140.2375,530.425 L139.7625,530.175 L142.7375,530.775 L146.9,531.375 Z M139.7625,530.175 L139.1625,530.175 L140.2375,530.425 L139.025,530.25 L135.9,529.5875 L134.85,529.2875 L134.4125,529.2875 L132.025,528.6875 L131.725,528.6875 L131.4375,528.4 L128.4625,527.8 L127.3625,527.5 L126.975,527.5 L126.5,527.25 L126.45,527.25 L126.275,527.2 L125.7875,527.2 L125.5375,527.075 L124.7375,526.9125 L124.5875,526.9125 L124.4625,526.8625 L123.4,526.6125 L123.25,526.4625 L124.075,526.6625 L125.1875,526.9125 L125.0375,526.9125 L125.3875,527.0125 L125.1875,526.9125 L123.725,526.5125 L123.125,526.3625 L123.125,526.3375 L123.1,526.3125 L121.9125,526.0125 L121.8625,526.0125 L121.35,525.8375 L121.075,525.7625 L120.875,525.7125 L119.8375,525.425 L119.2375,525.125 L117.75,524.825 L119.1375,525.225 L119.5375,525.425 L120,525.6375 L118.05,525.125 L117.45,524.825 L116.2625,524.525 L116.1375,524.425 L115.9625,524.225 L115.5125,524.225 L114.775,523.9375 L114.175,523.6375 L114.025,523.6375 L113.7875,523.5375 L113.5875,523.3375 L113.2875,523.3375 L112.9875,523.3375 L112.8375,523.3375 L111.8,523.0375 L110.9125,522.7375 L110.8375,522.7375 L110.0125,522.45 L112.1,523.0375 L111.2,522.7375 L110.0125,522.45 L110.6125,522.7375 L106.7375,521.55 L107.9375,521.85 L108.325,521.95 L108.075,521.85 L107.9375,521.85 L107.3375,521.55 L107.0375,521.55 L106.7375,521.55 L106.45,521.25 L106.15,521.25 L105.65,521.0125 L105.5,520.9625 L105.25,520.9625 L104.8625,520.7625 L104.7125,520.7125 L104.6625,520.6625 L104.9625,520.6625 L102.975,520.0625 L104.6625,520.6625 L104.5375,520.6625 L104.7125,520.7125 L104.9625,520.9625 L102.5,520.0625 L102.275,520.0625 L102.15,519.9375 L101.6875,519.7625 L102.1125,519.8875 L102.25,519.9375 L102.475,520.0125 L102.275,519.9125 L102.0375,519.8125 L101.9875,519.7625 L100.8625,519.375 L101.0875,519.475 L102.0375,519.8125 L102.1125,519.8875 L100.2,519.175 L99.9,519.175 L99.9,519.075 L99.3,518.875 L99.9,519.025 L96.825,517.9125 L98.1125,518.275 L99.9,519 L99.9,518.875 L100.5,519.175 L101.4125,519.5 L99.9,518.875 L98.1125,518.275 L97.125,517.8875 L96.925,517.8375 L96.825,517.7875 L97,517.8375 L96.625,517.6875 L95.8375,517.4875 L95.4375,517.3875 L94.725,517.0875 L94.65,517.0875 L95.4375,517.3875 L94.55,517.0875 L94.25,516.9375 L93.0625,516.5 L93.95,516.7875 L93.5,516.575 L93.35,516.5 L93.0625,516.5 L92.4625,516.2 L91.8625,515.9 L91.775,515.85 L95.7375,517.0875 L89.7875,515.0125 L88.3,514.4125 L88.8875,514.7125 L88.9125,514.7375 L89.5625,515.0125 L89.1875,515.0125 L87.4,514.1125 L87.55,514.1125 L86.8125,513.8125 L85.625,513.225 L85.325,513.225 L85.025,513.225 L83.2375,512.325 L82.65,512.0375 L81.45,511.4375 L81.1625,511.4375 L80.5625,511.1375 L80.2625,510.8375 L79.675,510.55 L79.075,510.55 L76.7,509.35 L76.1,509.0625 L75.8,508.7625 L74.6125,508.1625 L74.3125,508.1625 L73.125,507.575 L72.825,507.275 L71.6375,506.675 L71.3375,506.675 L70.75,506.375 L70.45,506.0875 L69.2625,505.4875 L68.6625,505.1875 L68.3625,505.1875 L67.775,504.9 L67.475,504.6 L66.875,504.3 L66.2875,504 L65.9875,503.7 L65.3875,503.4125 L64.8,503.1125 L64.5,503.1125 L63.9,502.8125 L63.6125,502.5125 L62.4125,501.925 L61.225,501.325 L60.925,501.025 L60.3375,500.725 L60.0375,500.725 L60.0375,500.575 L59.7375,500.4375 L59.15,500.1375 L58.85,499.8375 L58.25,499.5375 L57.95,499.3875 L57.6625,499.2375 L57.6125,499.1875 L56.175,498.35 L54.975,497.75 L55.125,497.75 L54.6875,497.4625 L53.7875,496.8625 L52.6,496.2625 L51.4125,495.375 L50.8125,494.975 L48.4375,493.5875 L48.7375,493.8875 L46.95,492.4 L46.35,492.1 L44.8625,491.2125 L45.4625,491.5125 L44.5625,490.9125 L44.075,490.6125 L44,490.5625 L43.325,490.1625 L42.0375,489.275 L43.075,490.025 L42.1875,489.425 L41.5125,488.9 L41.475,488.875 L41.3,488.825 L41.075,488.6125 L40.8,488.4375 L41,488.5375 L40.65,488.3125 L40.1,487.9375 L39.5875,487.5625 L39.8125,487.6375 L39.5125,487.3375 L38.9125,487.05 L38.55,486.825 L39.5875,487.5625 L39.5125,487.5375 L40.1,487.9375 L39.8125,487.7875 L39.7125,487.7375 L39.5125,487.6375 L39.9625,487.9375 L38.9125,487.3375 L38.6125,487.05 L37.725,486.45 L38.475,486.9 L38.325,486.75 L37.725,486.45 L37.725,486.35 L37.425,486.15 L37.725,486.325 L37.725,486.3 L37.55,486.15 L37.525,486.15 L37.425,486.15 L37.125,485.85 L36.5375,485.4125 L35.9375,485.1125 L35.8375,485.0625 L35.6375,484.9625 L35.5,484.8125 L34.45,484.075 L34.775,484.2375 L34.4,483.95 L35.6375,484.6625 L34.0125,483.475 L35.35,484.3625 L37.325,485.85 L37.425,485.85 L32.9625,482.2875 L34.75,483.775 L32.075,481.6875 L35.05,484.075 L34.0125,483.475 L33.8625,483.4 L32.9625,482.875 L29.4,479.9 L29.9875,480.2 L27.3125,478.125 L16.6,468.9 L13.625,465.325 L10.0625,462.05 L7.3875,458.4875 L6.1875,456.4 L6.4125,456.575 L5.3,454.9125 L3.5125,450.45 L2.025,448.675 L2.925,448.9625 L5.3,449.2625 L5.9,448.075 L2.925,439.15 L2.625,438.55 L4.4125,436.175 L2.625,433.8 L3.2125,433.5 L0.5375,432.6 L2.325,430.525 L4.1125,432.0125 L5,429.925 L3.2125,425.4625 L6.1875,423.0875 L6.1875,421 L8.275,422.7875 L8.275,425.4625 L6.4875,425.4625 L7.675,432.3125 L6.4875,435.2875 L7.3875,437.3625 L5.9,440.6375 L8.575,446.2875 L11.85,446.2875 L10.65,442.725 L10.0625,439.75 L10.95,437.6625 L12.4375,437.9625 L11.55,435.875 L13.625,434.0875 L11.85,431.7125 L14.825,430.825 L14.525,429.625 L18.0875,425.1625 L18.6875,421 L16.9,418.025 L17.5,417.725 L16.0125,416.5375 L16.0125,415.35 L20.775,410.8875 L25.525,411.1875 L27.9125,409.4 L31.175,408.8 L42.4875,407.3125 L51.1125,411.1875 L61.225,405.2375 L72.2375,404.05 L71.3375,404.3375 L76.7,405.825 L76.7,404.05 L75.2125,403.75 L82.65,397.8 L81.45,396.9125 L82.65,396.6125 L82.35,393.3375 L82.35,393.0375 L84.425,391.85 L85.625,393.3375 L85.025,393.9375 L84.1375,394.825 L85.9125,393.9375 L86.2125,393.9375 L90.675,390.9625 L90.675,388.275 L91.8625,388.275 L91.575,389.7625 L93.65,387.0875 L94.25,388.275 L98.4125,388.575 L99.3,386.5 L101.3875,387.6875 L101.9875,384.7125 L104.0625,385.3 L106.15,386.5 L104.0625,389.175 L106.15,390.6625 L110.3125,393.3375 L112.9875,390.6625 L114.775,391.25 L112.9875,389.175 L117.75,383.8125 L116.5625,373.7 L118.6375,372.8125 L118.05,371.625 L115.375,367.1625 L111.8,365.675 L111.8,362.7 L109.425,362.1 L110.0125,359.725 L105.25,357.9375 L104.9625,357.6375 L105.25,356.15 L105.55,355.2625 L105.25,354.9625 L103.175,352.2875 L104.0625,351.3875 L101.3875,349.3125 L101.3875,343.6625 L104.3625,342.175 L105.25,343.95 L105.85,344.55 L106.7375,343.0625 L105.25,339.4875 L99.9,334.7375 L101.9875,328.7875 L100.7875,327 L105.85,324.325 L110.6125,318.075 L114.475,310.3375 L117.15,304.6875 L124,295.4625 L123.4,293.0875 L125.7875,289.8125 L129.35,286.5375 L146.0125,279.1 L151.3625,274.05 L152.55,266.6125 L153.15,260.0625 L151.3625,250.25 L152.55,241.625 L149.575,224.9625 L151.0625,220.5 L150.775,219.9 L149.575,217.225 L151.3625,203.5375 L147.5,187.475 L145.7125,186.2875 L148.6875,177.0625 L147.2,169.925 L148.9875,167.8375 L148.3875,166.95 L150.775,168.4375 L152.2625,167.8375 L153.15,168.7375 L151.3625,166.35 L153.45,165.4625 L153.15,163.975 L151.6625,164.8625 L153.15,163.375 L151.9625,163.975 L151.6625,159.8125 L153.15,158.325 L151.6625,156.8375 L154.3375,155.35 L151.6625,152.375 L154.0375,151.475 L151.6625,151.1875 L151.6625,149.7 L153.15,150.5875 L152.2625,146.725 L151.0625,148.2125 L149.2875,147.9125 L150.775,148.2125 L149.575,148.2125 L150.175,149.7 L149.2875,148.5 L148.0875,149.4 L146.9,149.1 L148.9875,148.5 L148.0875,147.0125 L146.525,145.675 L148.0875,146.725 L148.6875,145.2375 L150.475,145.525 L151.6625,143.75 L150.175,142.55 L151.9625,142.55 L149.575,141.6625 L152.55,142.2625 L154.6375,140.775 L153.15,141.0625 L154.3375,139.575 L150.175,140.475 L152.85,138.9875 L151.3625,138.1 L152.55,137.5 L151.9625,134.825 L152.85,135.7125 L154.6375,133.6375 L152.55,133.925 L153.45,132.4375 L154.3375,131.25 L151.9625,131.55 L154.0375,130.95 L154.3375,128.875 L155.2375,130.95 L156.125,129.7625 L154.3375,128.875 L153.75,128.575 L155.525,127.975 L155.2375,125.9 L157.0125,124.4125 L156.725,125.9 L157.6125,124.4125 L156.725,126.4875 L159.1,125.6 L156.425,126.7875 L157.6125,127.975 L157.3125,126.4875 L159.4,125.6 L158.8,122.925 L158.8,124.7125 L158.5,123.225 L158.2125,124.4125 L157.6125,124.4125 L157.0125,124.4125 L156.125,124.4125 L156.725,121.4375 L158.8,122.625 L162.675,122.625 L163.5625,120.5375 L162.075,118.7625 L162.375,119.95 L160.5875,119.35 L164.1625,117.5625 L164.45,122.325 L168.9125,124.4125 L171.6,124.1125 L169.5125,126.7875 L167.725,126.7875 L169.5125,127.0875 L167.725,128.875 L170.4,132.7375 L169.8125,133.3375 L169.2125,134.525 L170.1125,133.3375 L170.4,133.0375 L171.6,133.3375 L171.6,133.6375 L172.1875,137.5 L177.55,142.2625 L177.25,145.2375 L173.975,145.825 L171,149.7 L172.7875,153.2625 L177.55,154.75 L177.8375,160.1125 L181.1125,163.0875 L178.7375,164.575 L180.8125,165.1625 L181.7125,163.675 L183.4875,164.8625 L182.9,166.95 L180.525,165.4625 L178.4375,166.95 L178.1375,172.9 L182.6,171.1125 L187.6625,172.3 L187.6625,179.45 L188.85,178.85 L187.6625,181.525 L192.125,180.6375 L195.9875,181.525 L201.6375,182.7125 L205.2125,184.5 L208.4875,189.8625 L208.4875,192.2375 L206.1,194.025 L207,197 L201.6375,201.1625 L202.5375,207.1125 L202.2375,203.2375 L204.6125,200.8625 L210.8625,198.4875 L218.6,199.375 L225.1375,206.5125 L226.925,212.1625 L232.2875,218.4125 L231.3875,220.2 L234.0625,217.825 L227.525,210.3875 L232.875,214.85 L236.15,219.9 L238.225,222.875 L242.4,226.15 L244.175,232.7 L242.9875,236.5625 L245.375,239.8375 L243.8875,240.725 L245.9625,240.1375 L248.9375,243.7 L254.3,246.975 L258.1625,246.975 L262.925,250.5375 L266.2,249.65 L268.275,251.1375 L268.275,249.65 L272.7375,249.35 L273.0375,251.4375 L277.5,253.225 L277.2,255.6 L282.5625,262.4375 L283.45,263.925 L284.6375,269.5875 L287.3125,272.2625 L290.8875,294.575 L291.475,295.7625 L292.375,293.675 L294.1625,294.875 L303.375,305.875 L308.7375,312.7125 L309.625,318.075 L308.1375,325.8125 L306.65,327.8875 L300.4,329.375 L294.75,335.925 L288.2125,340.6875 L278.3875,341.875 L273.3375,344.85 L266.7875,340.975 L267.3875,343.95 L269.175,345.15 L266.2,344.85 L268.575,346.6375 L267.0875,349.6 L265,347.825 L264.7125,350.2 L263.8125,349.3125 L264.4125,350.2 L262.925,349.9 L261.7375,351.6875 L261.1375,350.5 L260.8375,352.2875 L260.25,351.3875 L255.7875,354.0625 L255.4875,353.175 L252.5125,354.0625 L250.425,350.8 L252.2125,350.2 L250.725,349.6 L249.5375,351.0875 L245.6625,346.925 L246.8625,349.9 L241.5,349.3125 L248.6375,350.8 L251.025,355.85 L241.8,357.3375 L239.7125,353.475 L239.7125,355.55 L237.6375,353.775 L237.6375,355.85 L235.55,353.775 L237.3375,357.6375 L243.8875,362.9875 L242.9875,362.9875 L243.8875,365.075 L240.0125,367.1625 L237.3375,376.375 L236.15,377.275 L235.85,375.7875 L232.875,379.65 L223.95,384.1125 L210.2625,384.4125 L204.6125,388.875 L203.125,386.7875 L204.025,390.6625 L201.3375,393.3375 L197.175,395.7125 L195.9875,396.0125 L193.0125,396.0125 L193.0125,399.2875 L189.4375,401.3625 L186.175,400.775 L185.575,401.6625 L183.7875,403.15 L188.55,404.6375 L177.55,404.3375 L180.225,403.45 L173.675,401.6625 L168.325,404.05 L159.7,402.85 L158.5,405.825 L153.15,406.425 L151.3625,409.4 L150.475,407.025 L152.2625,407.3125 L152.2625,406.425 L150.775,406.725 L144.225,403.45 L145.7125,400.175 L146.6,399.2875 L146.3125,397.5 L143.3375,396.3125 L141.55,399.2875 L142.1375,399.8875 L144.225,402.85 L142.4375,406.425 L146.6,408.5125 L143.925,410 L136.4875,404.9375 L132.625,404.6375 L132.025,403.15 L129.65,403.45 L127.5625,402.2625 L125.4875,399.2875 L125.4875,398.6875 L125.7875,396.6125 L119.8375,392.45 L120.425,389.7625 L115.6625,394.225 L110.9125,395.425 L108.225,395.425 L106.45,394.225 L101.6875,391.25 L98.1125,392.45 L98.4125,391.55 L96.625,391.55 L93.95,395.125 L90.375,399.8875 L94.55,412.075 L93.95,415.65 L87.7,417.4375 L74.9125,414.1625 L71.6375,414.4625 L75.2125,418.925 L76.7,424.275 L75.5125,424.275 L77.2875,426.3625 L77.5875,423.975 L80.2625,429.3375 L79.075,429.625 L83.8375,436.175 L78.775,436.175 L70.15,432.6 L67.175,426.3625 L63.3125,422.1875 L60.3375,422.4875 L52.3,418.325 L49.925,420.4125 L47.5375,419.8125 L43.975,430.225 L43.975,432.0125 L46.35,438.85 L47.25,441.525 L49.025,442.425 L48.1375,440.9375 L50.5125,444.5 L51.1125,448.675 L52.9,451.65 L56.175,453.125 L55.575,454.025 L57.6625,454.325 L56.7625,453.425 L61.225,456.4 L62.4125,458.4875 L63.9,458.4875 L62.7125,457.5875 L66.2875,459.075 L66.3625,459.375 L71.3375,459.975 L73.425,461.1625 L75.8,459.375 L77.5875,460.5625 L78.775,460.275 L78.775,461.4625 L80.2625,461.4625 L80.8625,459.975 L82.65,461.1625 L80.5625,461.7625 L82.65,463.25 L80.8625,463.25 L78.775,463.25 L87.1125,465.025 L88,466.5125 L88.3,465.625 L87.4,465.025 L91.275,466.8125 L90.375,465.925 L94.25,466.8125 L93.0625,466.225 L96.325,466.5125 L96.325,465.625 L96.325,464.7375 L99.9,466.225 L101.0875,466.8125 L102.275,466.5125 L102.875,466.5125 L106.15,463.8375 L104.3625,460.5625 L106.15,461.1625 L104.6625,459.375 L105.55,457.5875 L107.0375,458.1875 L107.0375,454.9125 L109.7125,454.025 L109.125,452.5375 L111.2,452.8375 L111.2,452.2375 L114.475,458.4875 L112.4,468 L111.8,471.575 L116.2625,474.85 L115.9625,475.7375 L116.2625,475.15 L119.2375,476.6375 L124.5875,480.2 L134.4125,484.075 L132.025,484.3625 L134.1125,484.9625 L132.325,485.5625 L135.3,485.2625 L137.0875,486.45 L136.7875,487.3375 L135.9,486.15 L136.1875,487.3375 L133.5125,486.75 L135.9,487.9375 L137.0875,487.6375 L137.0875,489.125 L137.975,486.75 L137.0875,489.725 L133.8125,490.025 L135.6,490.025 L135.3,490.3125 L136.4875,491.2125 L136.2625,491.3125 L136.7875,492.1 L133.2125,492.7 L134.1125,493.5875 L136.7875,492.4 L136.4875,495.375 L139.4625,496.2625 L137.0875,494.4875 L139.1625,492.4 L137.3875,490.3125 L141.55,493.5875 L140.65,496.8625 L142.4375,495.075 L145.7125,497.1625 L145.7125,498.95 L146.775,499.5375 L146.9,499.5375 L147.2,499.6125 L146.825,499.5625 L148.3875,500.4375 L155.825,501.625 L156.425,502.8125 L157.0125,501.925 L161.1875,502.5125 L161.1875,503.4125 L159.9875,502.5125 L157.9125,504 L161.1875,506.975 L162.9625,507.275 L162.9625,507.8625 L164.75,507.575 L166.5375,509.0625 L166.2375,508.4625 L168.325,509.0625 L168.9125,508.7625 L172.7875,509.65 L172.1875,510.55 L174.575,510.25 L181.7125,512.0375 L179.325,510.8375 L184.6875,511.1375 L182.3,510.25 L180.8125,510.8375 L175.4625,509.0625 L174.8625,507.8625 L177.25,506.975 L181.4125,509.35 L183.4875,509.35 L183.4875,509.95 L191.525,510.8375 L192.4125,511.1375 L189.4375,512.0375 L184.975,511.7375 L180.525,512.925 L180.225,514.1125 L178.4375,514.1125 L180.525,515.6 L177.8375,515.0125 L177.25,515.6 L174.275,515.6 L179.0375,515.9 L182.0125,516.7875 L181.4125,517.6875 L176.65,517.9875 L170.4,516.7875 L159.9875,512.925 L164.45,515.0125 L164.45,515.6 L173.0875,517.9875 L175.1625,519.175 L176.0625,519.475 L195.3875,519.7625 L195.6875,519.7625 L199.2625,521.25 L204.3125,521.55 L207.5875,522.45 L205.8,522.7375 L207.5875,522.7375 L204.9125,523.0375 L207.2875,523.0375 L206.1,523.3375 L207,523.9375 L204.9125,524.825 L202.5375,524.225 L203.125,524.825 L200.15,525.425 L195.1,524.525 L199.5625,525.425 L196.2875,525.125 L202.2375,525.7125 L199.85,526.0125 L200.75,526.3125 L197.775,526.3125 L197.775,526.6125 L196.5875,526.3125 L197.175,526.6125 L195.3875,526.0125 L196.5875,526.6125 L195.1,526.6125 L193.3125,526.3125 L194.2,527.2 L193.3125,527.2 L193.6125,527.5 L190.3375,527.5 L191.525,527.8 L190.925,527.8 L189.15,528.1 L190.6375,528.1 L188.55,528.4 L190.6375,528.4 L191.525,528.6875 L188.55,529.2875 L190.0375,529.2875 L188.25,529.5875 L188.85,529.8875 L186.4625,529.5875 L188.55,530.175 L185.875,529.8875 L187.95,530.175 L187.3625,530.775 L184.975,530.475 L186.7625,530.775 L183.7875,531.375 L184.6875,531.6625 L183.4875,531.6625 L181.7125,531.075 L182.9,530.775 L181.1125,530.775 L182.0125,530.475 L180.225,530.175 L180.225,529.8875 L179.325,530.175 L176.0625,529.2875 L175.4625,529.8875 L173.375,529.2875 L174.575,529.8875 L171.8875,529.8875 L170.1125,529.8875 L171.3,530.175 L171.8875,529.8875 L172.7875,530.475 L171.6,530.475 L172.1875,530.775 L169.5125,530.775 L172.4875,531.075 L173.375,531.6625 L168.625,531.6625 L169.2125,531.9625 L167.425,531.6625 L165.35,532.2625 L162.9625,531.6625 L157.6125,531.6625 L155.525,531.075 L156.125,530.775 L153.75,530.175 L155.2375,530.175 L155.2375,529.5875 L150.475,528.1 L153.45,527.8 L152.9,526.1875 L153.45,526.3125 L154.0375,526.0125 L152.85,526.0125 L148.6875,524.525 L142.4375,523.0375 L143.925,522.7375 L143.3375,520.0625 L140.95,519.175 L140.95,518.575 L140.3625,519.175 L138.275,517.9875 L137.675,517.9875 L136.1875,517.9875 L136.7875,518.575 L133.8125,520.0625 L136.7875,523.0375 L129.95,522.15 L120.425,522.45 L115.375,520.9625 L117.15,521.85 L118.35,523.0375 L116.5625,522.7375 L115.375,522.15 L115.375,522.7375 L119.2375,524.225 L124.8875,526.0125 L124.5875,526.0125 L129.05,527.2 L128.7625,527.2 L129.65,527.5 L128.1625,527.2 L128.4625,527.5 L129.35,527.8 L130.8125,528.025 L128.4625,527.5 L129.65,527.5 L130.5375,527.8 L132.625,528.1 L131.725,528.1 L130.25,527.8 L131.0125,528.05 L133.2125,528.4 L135.9,529.2875 L139.1625,529.8875 L143.3375,530.775 L139.7625,530.175 Z M147.2,499.6125 L151.6625,500.1375 L153.15,501.025 L147.2,499.6125 Z M158.8,122.625 L157.9125,120.8375 L159.1,120.5375 L158.8,122.625 Z M146.525,145.675 L146.3125,145.525 L146.3375,145.5 L146.525,145.675 Z M146.3375,145.5 L146.0125,145.2375 L147.2,144.6375 L146.3375,145.5 Z M104.3625,342.175 L104.9625,340.975 L105.25,341.875 L105.85,342.4625 L105.25,342.175 L104.3625,342.175 Z M34.4,483.95 L33.5625,483.475 L34.15,483.775 L34.4,483.95 Z M39.9625,487.9375 L39.8125,487.7875 L40.65,488.3125 L40.8,488.4375 L40.15,488.0625 L39.9625,487.9375 Z M44.075,490.6125 L44.8625,491.2125 L46.35,492.4 L44.075,490.6125 Z M57.95,499.3875 L58.3,499.5875 L58.55,499.8375 L57.95,499.3875 Z M91.775,515.85 L90.975,515.6 L91.275,515.6 L91.775,515.85 Z M96.625,517.6875 L96.825,517.7875 L96.475,517.6875 L96.625,517.6875 Z M96.475,517.6875 L96.325,517.6875 L95.9625,517.5375 L96.475,517.6875 Z M96.325,517.6875 L96.925,517.8375 L97.225,517.9875 L96.575,517.8125 L96.2125,517.6875 L96.325,517.6875 Z M96.2125,517.6875 L96.0375,517.6875 L95.6125,517.4625 L96.2125,517.6875 Z M96.0375,517.6875 L96.575,517.8125 L96.825,517.9125 L96.0375,517.6875 Z M110.6125,522.7375 L110.8375,522.7375 L113.2875,523.6375 L111.2,523.0375 L110.6125,522.7375 Z M113.2875,523.6375 L113.5875,523.6375 L115.1,524.125 L113.2875,523.6375 Z M123.1,526.3125 L123,526.3125 L122.7375,526.2375 L123.1,526.3125 Z M123.4,526.6125 L120.475,525.7875 L121.3,525.9875 L121.3875,526.0125 L122.0875,526.1625 L122.2125,526.2125 L122.4125,526.2625 L122.6625,526.3125 L122.5125,526.3125 L123.4,526.6125 Z M139.025,530.25 L140.3625,530.475 L140.0625,530.475 L139.025,530.25 Z M140.3625,530.475 L140.2375,530.425 L140.5125,530.475 L140.3625,530.475 Z M140.5125,530.475 L140.65,530.475 L141.25,530.625 L140.5125,530.475 Z M144.325,531.275 L146.3125,531.6625 L144.525,531.375 L144.325,531.275 Z M146.3125,531.475 L147.5,531.6625 L148.3875,531.9625 L146.9,531.6625 L146.3125,531.475 Z M156.425,531.9625 L157.0125,531.6625 L158.2125,531.9625 L156.425,531.9625 Z M152.85,531.075 L151.0625,530.475 L152.85,530.775 L152.85,531.075 Z M163.8625,531.075 L163.8625,530.775 L160.5875,530.475 L163.8625,531.075 Z M148.9875,530.775 L146.6,530.475 L144.225,529.8875 L144.225,529.5875 L148.9875,530.775 Z M161.1875,529.8875 L163.2625,529.8875 L159.9875,529.5875 L161.1875,529.8875 Z M159.4,527.8 L157.9125,527.5 L158.5,527.5 L155.825,527.2 L159.4,527.8 Z M180.8125,527.5 L180.8125,527.2 L179.325,527.2 L180.8125,527.5 Z M182.9,527.5 L184.3875,527.5 L184.0875,527.2 L182.9,527.5 Z M258.1625,527.2 L259.35,526.9125 L259.325,526.9375 L261.3375,526.4875 L262.625,526.1125 L262.925,526.0125 L262.85,526.0625 L263.075,525.9875 L263.175,525.9625 L263.275,525.9375 L263.325,525.9125 L263.8125,525.7125 L263.5125,525.8625 L263.3625,525.9375 L264.7125,525.7125 L262.7,526.1625 L262.825,526.1125 L262.625,526.1625 L262.7,526.1625 L262.325,526.3125 L262.575,526.1875 L262.025,526.3125 L259.35,527.2 L259.05,527.2 L259.3,526.9625 L258.1625,527.2 Z M264.7125,525.7125 L264.1125,525.7125 L263.5125,525.8625 L265.125,525.425 L265,525.425 L265.6,525.3 L265.9,525.225 L265.3,525.425 L265.6,525.425 L265.1,525.525 L264.7125,525.7125 Z M265.9,525.225 L266.2,525.125 L265.6,525.125 L270.3625,523.9375 L269.7625,524.225 L269.075,524.425 L268.875,524.525 L268.725,524.525 L267.6875,524.825 L268.575,524.525 L267.6875,524.725 L267.3875,524.825 L267.2375,524.9 L267.6875,524.825 L267.1375,524.95 L266.7875,525.125 L266.3375,525.125 L265.9,525.225 Z M157.9125,526.6125 L158.5,526.3125 L156.725,526.3125 L157.9125,526.6125 Z M177.25,526.3125 L180.525,524.825 L182.0125,525.125 L181.9375,525.15 L181.7125,525.125 L180.8125,525.7125 L181.9375,525.15 L183.7875,525.425 L183.2,526.0125 L184.6875,525.125 L186.7625,525.125 L183.7875,524.825 L182.3,525.125 L180.525,524.825 L181.4125,524.225 L180.225,524.225 L180.525,524.825 L177.55,525.7125 L177.55,525.125 L177.25,526.3125 Z M146.3125,525.7125 L143.625,524.525 L145.7125,525.125 L146.3125,525.7125 Z M145.7125,525.125 L145.4125,524.825 L146.9,525.425 L145.7125,525.125 Z M168.325,525.425 L168.625,525.125 L166.8375,524.825 L168.325,525.425 Z M172.4875,524.225 L171.8875,523.6375 L170.1125,523.6375 L172.4875,524.225 Z M182.0125,523.6375 L183.4875,523.0375 L182.0125,523.0375 L182.0125,523.6375 Z M273.0375,523.0375 L274.825,522.45 L276.0125,522.15 L276.3125,522.15 L273.6375,523.0375 L273.0375,523.0375 Z M112.6875,522.7375 L109.7125,521.85 L110.0125,521.85 L108.225,520.9625 L107.6375,520.9625 L107.9375,521.25 L108.075,521.25 L108.525,521.55 L110.0125,522.15 L110.5625,522.275 L112.6875,522.7375 Z M165.35,521.55 L166.5375,521.55 L165.9375,520.9625 L165.35,521.55 Z M168.325,521.55 L171.6,521.55 L169.5125,520.0625 L168.325,521.55 Z M207.2875,521.55 L203.125,520.3625 L202.825,519.175 L202.5375,518.275 L200.75,518.275 L201.9375,517.6875 L200.45,517.9875 L197.775,516.7875 L200.75,516.7875 L197.475,515.9 L198.075,515.3 L200.75,515.6 L205.5125,515.0125 L208.775,515.6 L207.8875,515.0125 L212.05,515.0125 L208.4875,513.8125 L210.8625,513.8125 L214.1375,515.3 L215.025,514.4125 L214.1375,513.525 L215.925,514.1125 L215.925,512.925 L217.4125,512.925 L218.9,514.4125 L218,515.0125 L216.8125,514.7125 L217.4125,515.6 L215.925,514.7125 L214.4375,515.3 L215.325,515.6 L214.1375,515.9 L217.1125,516.5 L213.5375,516.2 L215.325,517.6875 L212.35,517.6875 L212.05,518.275 L209.675,517.3875 L209.975,518.275 L207.2875,518.275 L209.075,519.175 L206.7,519.175 L207,519.475 L206.4,519.175 L204.9125,518.575 L205.8,519.175 L207.8875,520.9625 L206.7,521.25 L208.4875,521.25 L207.2875,521.55 Z M170.4,521.25 L168.9125,520.9625 L169.8125,520.6625 L170.4,521.25 Z M105.85,520.6625 L104.3625,520.0625 L104.0625,520.0625 L105.85,520.6625 Z M137.3875,520.6625 L134.7,520.0625 L137.675,520.0625 L137.3875,520.6625 Z M104.0625,520.5125 L103.7625,520.3625 L103.6,520.3625 L104.0625,520.5125 Z M104.0625,520.3625 L102.575,519.7625 L101.6875,519.475 L104.0625,520.3625 Z M158.2125,520.3625 L153.15,517.9875 L154.6375,519.475 L158.2125,520.3625 Z M103.275,520.2625 L102.875,520.0625 L102.75,520.0625 L102.9,520.1375 L103.1,520.2125 L103.275,520.2625 Z M168.325,520.0625 L168.625,518.875 L168.625,518.275 L167.725,518.875 L167.1375,519.175 L168.325,520.0625 Z M106.15,519.475 L104.3625,518.575 L100.5,517.3875 L103.175,518.275 L106.15,519.475 Z M101.0875,519.175 L100.5,518.875 L99.3,518.575 L101.0875,519.175 Z M181.7125,519.175 L189.4375,517.9875 L189.7375,518.275 L187.3625,518.875 L181.7125,519.175 Z M147.2,518.875 L145.1125,518.275 L145.1125,518.575 L147.2,518.875 Z M150.475,518.575 L151.9625,518.575 L150.475,517.6875 L150.475,518.575 Z M164.45,518.575 L165.9375,517.6875 L164.45,517.9875 L162.075,517.3875 L164.45,518.575 Z M99.0125,517.9875 L96.325,516.7875 L95.1375,516.5 L97.525,517.3875 L99.0125,517.9875 Z M100.2,517.9875 L96.925,516.5 L93.95,515.3 L93.35,515.0125 L93.575,515.1625 L92.4625,514.7125 L94.25,515.6 L93.575,515.1625 L93.95,515.3 L95.1375,515.9 L96.0375,516.5 L100.2,517.9875 Z M109.125,517.6875 L105.55,516.5 L107.3375,517.3875 L109.125,517.6875 Z M143.925,517.3875 L144.225,517.3875 L144.225,517.0875 L144.225,516.7875 L142.1375,516.5 L143.0375,516.7875 L143.925,517.3875 Z M97.525,516.2 L97.225,515.6 L96.0375,515.3 L97.525,516.2 Z M105.25,516.2 L106.15,516.2 L104.3625,515.6 L105.25,516.2 Z M151.0625,515.6 L152.2625,515.0125 L150.1,515.275 L149.575,515.1125 L148.9875,514.7125 L149.2875,515.0125 L148.3875,514.7125 L149.575,515.3 L149.2875,515.0125 L149.575,515.1125 L149.875,515.3 L150.1,515.275 L151.0625,515.6 Z M90.675,515.0125 L90.975,515.0125 L90.375,514.7125 L88,513.8125 L90.675,515.0125 Z M98.7125,515.0125 L98.4125,514.7125 L95.7375,510.8375 L93.0625,509.0625 L95.4375,511.1375 L93.65,510.55 L94.55,511.7375 L93.0625,510.8375 L93.0625,512.0375 L94.25,512.325 L94.55,512.625 L93.65,512.625 L95.4375,513.525 L97.225,513.8125 L98.7125,515.0125 Z M182.9,514.4125 L181.4125,513.525 L186.175,512.325 L189.15,513.225 L182.9,513.225 L182.9,514.4125 Z M194.2,514.4125 L190.6375,512.325 L191.525,511.4375 L192.9125,511.7375 L191.825,511.7375 L194.2,512.925 L194.2,514.4125 Z M192.9125,511.7375 L193.0125,511.7375 L193.0625,511.7625 L192.9125,511.7375 Z M193.0625,511.7625 L195.6875,512.325 L196.2875,512.325 L195.6875,512.625 L194.8,512.925 L193.0625,511.7625 Z M94.25,513.525 L93.0625,512.925 L92.7625,512.925 L92.4625,512.625 L92.4625,512.325 L92.1625,512.325 L92.4625,512.0375 L91.8625,512.0375 L91.575,512.0375 L90.0875,511.7375 L91.8625,512.325 L92.7625,512.925 L94.25,513.525 Z M113.8875,513.225 L114.175,512.925 L112.1,511.7375 L110.9125,512.0375 L111.5,512.325 L112.1,512.625 L113.8875,513.225 Z M144.225,513.225 L143.925,512.0375 L143.0375,512.625 L144.225,513.225 Z M159.7,512.925 L159.7,512.625 L143.625,507.275 L141.55,506.375 L141.55,505.1875 L138.875,504.3 L129.65,503.4125 L132.325,504.9 L138.875,505.4875 L140.0625,506.0875 L137.675,506.0875 L143.625,507.275 L150.175,509.65 L159.7,512.925 Z M106.45,512.325 L104.9625,511.7375 L103.175,511.1375 L101.9875,511.4375 L103.7625,511.4375 L106.45,512.325 Z M83.8375,512.0375 L84.1375,512.0375 L83.1625,511.5875 L82.9375,511.4375 L81.45,510.55 L81.1625,510.55 L80.2625,510.25 L83.1625,511.5875 L83.8375,512.0375 Z M91.575,511.7375 L88.3,509.35 L90.0875,510.8375 L90.375,511.1375 L88.6,510.8375 L89.1875,511.1375 L90.375,511.4375 L90.675,511.4375 L90.975,511.4375 L91.575,511.7375 Z M116.5625,511.4375 L117.15,510.25 L119.8375,510.8375 L118.9375,508.1625 L129.35,508.4625 L130.8375,507.275 L131.725,506.675 L130.25,506.0875 L129.95,505.7875 L127.275,505.7875 L125.7875,506.675 L126.375,505.7875 L123.4,502.8125 L121.025,501.625 L121.025,503.7 L116.8625,502.5125 L119.5375,504.3 L120.725,506.0875 L116.5625,506.375 L113.5875,504 L114.175,505.1875 L111.2,503.7 L108.825,499.8375 L106.15,497.1625 L103.475,496.2625 L104.0625,499.5375 L108.225,503.4125 L106.15,502.8125 L110.9125,505.7875 L111.5,505.1875 L115.375,506.975 L120.125,507.275 L119.5375,508.1625 L117.45,507.8625 L118.05,508.4625 L110.6125,506.675 L110.0125,507.275 L107.6375,506.675 L107.9375,507.575 L101.9875,505.1875 L100.5,505.1875 L101.3875,505.7875 L97.525,504.9 L108.825,509.65 L109.7125,509.65 L111.2,510.8375 L110.3125,509.95 L111.5,510.25 L112.1,511.1375 L116.5625,511.4375 Z M90.0875,509.95 L88.8875,507.8625 L89.4875,509.35 L88.6,509.35 L90.0875,509.95 Z M306.65,509.95 L307.25,509.65 L308.1375,509.35 L306.65,509.95 Z M97.225,509.65 L97.225,508.4625 L96.725,508.3875 L93.35,506.975 L96.325,508.7625 L94.8375,508.4625 L97.225,509.65 Z M132.325,509.65 L134.1125,509.65 L132.325,509.4 L132.325,509.35 L132.025,509.35 L130.8375,509.35 L132.325,509.65 Z M309.0375,508.7625 L311.0375,507.8625 L312.3,507.15 L312.3,507.275 L311.7125,507.575 L311.1125,507.8625 L310.7875,508.0125 L309.0375,508.7625 Z M312.3,507.15 L312.3,506.975 L315.875,505.1875 L314.3875,505.7875 L314.6875,505.4875 L316.475,504.6 L313.7875,505.7875 L316.175,504.6 L316.175,504.3 L318.85,502.8125 L319.15,502.5125 L320.9375,501.925 L319.15,502.2125 L320.6375,501.625 L320.3375,501.625 L321.525,501.025 L321.225,501.025 L322.425,500.725 L322.425,500.4375 L324.5,499.8375 L326.2875,499.2375 L320.6375,502.5125 L317.7625,504.35 L320.0375,503.1125 L321.225,502.5125 L320.3375,502.8125 L323.3125,501.325 L325.4,500.1375 L327.175,498.95 L326.5875,499.2375 L326.8875,498.95 L327.775,498.65 L328.9625,497.75 L328.9625,497.4625 L333.425,495.075 L333.725,495.075 L333.575,495.225 L333.825,495.075 L333.725,495.075 L334.6125,494.1875 L332.8375,495.375 L333.725,494.1875 L336.7,492.7 L335.5125,493.5875 L338.6625,491.9 L338.7125,491.875 L339.075,491.5125 L339.375,491.5125 L339.675,491.3625 L339.45,491.5125 L339.9,491.2875 L339.95,491.2625 L339.975,491.2125 L340.2625,491.0625 L340.8625,490.6125 L340.3875,490.9125 L340.5625,490.7625 L339.375,491.5125 L343.2375,488.825 L342.05,489.725 L342.55,489.425 L342.15,489.725 L342.35,489.725 L339.675,491.5125 L338.7875,492.1 L339.075,491.8 L337.3,493 L336.825,493.2625 L336.5,493.4875 L336.4,493.5875 L336.25,493.6625 L335.5125,494.1875 L334.9125,494.4875 L334.6125,494.775 L334.025,495.075 L333.875,495.075 L333.425,495.375 L333.125,495.675 L331.6375,496.5625 L331.4375,496.6625 L329.2625,498.05 L329.5625,497.75 L330.35,497.2625 L330.75,496.8625 L329.5625,497.75 L326.5875,499.5375 L320.9375,502.8125 L319.15,503.7 L317.8875,504.475 L315.575,505.4875 L314.9875,505.7875 L314.3875,506.0875 L313.2,506.675 L312.6,506.975 L312.3,507.15 Z M342.35,489.725 L342.8,489.275 L342.55,489.425 L342.95,489.125 L343.2375,488.825 L345.025,487.6375 L340.8625,490.3125 L345.025,487.3375 L343.2375,488.2375 L341.4625,489.425 L339.975,490.025 L340.8625,489.425 L342.65,487.9375 L346.8125,485.5625 L350.675,482.5875 L352.4625,481.3875 L353.95,479.9 L354.55,479.6125 L359.9,474.55 L349.4875,479.9 L347.4125,481.3875 L345.925,481.1 L349.1875,478.4125 L354.25,472.7625 L355.7375,469.7875 L356.625,469.7875 L357.225,468.6 L358.7125,468 L358.1125,468 L360.8,464.4375 L364.9625,462.95 L370.6125,457.8875 L371.5,458.7875 L375.9625,456.1 L375.675,457.8875 L376.5625,457.3 L375.075,459.075 L375.375,459.375 L375.375,459.675 L374.475,460.5625 L373.5875,461.1625 L372.1,462.95 L372.1,463.25 L370.6125,465.325 L371.8,465.325 L367.9375,469.2 L368.2375,469.2 L372.7,465.325 L372.1,466.225 L372.4,465.925 L372.55,465.85 L371.8,466.5125 L370.6125,467.7125 L370.0125,468 L369.725,468.6 L369.125,468.9 L368.2375,469.7875 L367.6375,470.0875 L367.3375,470.6875 L366.15,471.275 L365.85,471.875 L365.2625,472.175 L364.9625,472.7625 L364.3625,473.0625 L364.0625,473.3625 L363.875,473.4625 L363.775,473.6625 L363.575,473.7625 L363.675,473.5625 L363.475,473.6625 L363.175,473.95 L363.575,473.7625 L363.475,473.95 L362.875,474.25 L362.575,474.55 L362.2875,474.85 L362.0875,474.95 L362.1875,474.75 L361.9875,474.85 L361.6875,475.15 L362.0875,474.95 L361.9875,475.15 L361.3875,475.4375 L360.8,476.0375 L360.5,476.3375 L359.9,476.6375 L359.6,476.925 L359.3125,477.225 L359.0125,477.525 L358.4125,477.825 L357.525,478.7125 L357.225,479.0125 L356.625,479.3125 L356.3375,479.6125 L356.0375,479.9 L355.7375,480 L355.4375,480.2 L355.5875,480.05 L355.1375,480.2 L354.85,480.5 L355.4375,480.2 L355.1375,480.5 L354.55,480.8 L354.25,481.1 L353.95,481.3875 L353.65,481.6875 L353.0625,481.9875 L352.4625,482.5875 L352.1625,482.875 L351.725,483.025 L351.575,483.175 L350.975,483.475 L350.3875,484.075 L350.0875,484.3625 L349.4875,484.6625 L348.3,485.5625 L348,485.7 L347.4125,486.15 L347.1125,486.45 L347.0125,486.45 L346.2125,487.05 L346.5125,486.75 L346.9125,486.45 L346.8125,486.45 L345.925,487.05 L345.325,487.6375 L344.725,487.9375 L343.9375,488.5375 L344.4375,488.2375 L343.5375,488.825 L342.35,489.725 Z M372.55,465.85 L372.7,465.725 L372.7,465.625 L376.2625,462.35 L376.5625,462.05 L377.1625,461.4625 L377.75,460.8625 L377.575,461.1375 L377.55,461.1625 L377.45,461.3125 L377.45,461.3375 L377.425,461.3375 L377.1625,461.7625 L376.9875,461.7625 L374.775,463.8375 L372.9875,465.625 L372.7,465.925 L372.7,465.775 L372.55,465.85 Z M377.45,461.3125 L377.9,460.8875 L377.75,461.1625 L377.45,461.3125 Z M377.9,460.8875 L377.925,460.8125 L377.925,460.7875 L378.025,460.6125 L378.05,460.5625 L379.5375,459.075 L380.775,458.0875 L380.95,457.9375 L380.95,457.9625 L380.725,458.1875 L379.8375,459.075 L378.65,460.275 L378.425,460.4 L378.7375,460.075 L378.375,460.4 L380.2,458.6375 L378.125,460.5375 L378.3,460.45 L378.375,460.4 L378.425,460.4 L377.9,460.8875 Z M340.3875,490.9125 L339.975,491.2125 L339.675,491.3625 L340.3875,490.9125 Z M98.4125,508.4625 L99.6,507.575 L97.525,507.575 L98.4125,508.4625 Z M126.675,508.1625 L121.9125,507.575 L125.4875,507.275 L126.675,508.1625 Z M316.175,505.1875 L316.9875,504.7 L316.175,504.9 L316.175,505.0375 L316.475,504.9 L316.175,505.1875 Z M316.7625,504.9 L317.2625,504.625 L317.1125,504.65 L317.0875,504.675 L316.7625,504.9 Z M72.2375,504 L72.2375,503.7 L68.3625,501.925 L70.75,503.1125 L72.2375,504 Z M132.325,503.1125 L131.1375,502.2125 L127.8625,501.025 L121.325,498.65 L115.9625,498.35 L119.5375,501.025 L120.125,500.4375 L118.35,499.8375 L118.05,499.2375 L122.8125,501.025 L127.8625,501.625 L126.675,501.625 L128.4625,502.2125 L132.325,503.1125 Z M73.125,500.725 L73.125,500.1375 L74.3125,500.725 L73.425,500.1375 L76.1,500.725 L72.825,499.8375 L72.825,500.4375 L70.75,499.8375 L73.125,500.725 Z M75.2125,499.2375 L71.05,494.4875 L69.5625,494.4875 L71.6375,495.675 L75.2125,499.2375 Z M56.7625,498.65 L56.4625,498.35 L55.875,498.05 L55.575,497.85 L55.8,497.975 L55.575,497.75 L55.575,497.85 L55.575,497.925 L56.025,498.2 L55.875,498.05 L56.7625,498.65 Z M64.8,497.4625 L63.9,496.8625 L64.2,497.1625 L59.7375,495.075 L60.0375,495.675 L64.8,497.4625 Z M72.825,494.1875 L73.125,492.7 L71.9375,493 L72.825,494.1875 Z M348.9,484.9625 L349.4875,484.5625 L349.1875,484.6625 L348.9,484.9625 Z M111.5,479.0125 L111.8,478.4125 L110.3125,478.125 L111.5,479.0125 Z M35.35,477.225 L35.35,476.0375 L35.05,476.3375 L33.8625,475.15 L35.35,477.225 Z M63.6125,470.3875 L63.0125,469.7875 L61.825,469.4875 L63.6125,470.3875 Z M32.075,469.4875 L32.075,469.2 L29.9875,467.1125 L27.3125,465.625 L32.075,469.4875 Z M19.875,461.7625 L19.875,461.4625 L19.2875,460.5625 L19.875,461.1625 L19.875,460.8625 L17.8,459.675 L19.875,461.7625 Z M124.3,459.975 L125.7875,458.7875 L124.5875,457 L125.1875,456.7 L126.375,459.075 L124.3,459.975 Z M377.1625,459.975 L376.8625,459.675 L378.65,458.1875 L378.35,458.7875 L377.1625,459.975 Z M111.8,459.375 L111.5,457.8875 L110.3125,458.4875 L111.8,459.375 Z M7.675,457.5875 L6.4875,456.1 L6.4875,456.65 L7.675,457.5875 Z M370.3125,457.5875 L372.4,453.125 L369.425,451.05 L370.3125,447.775 L373.2875,443.3125 L373.2875,441.525 L371.5,439.45 L368.525,439.75 L368.525,436.175 L366.75,435.2875 L367.6375,430.525 L365.85,428.4375 L366.15,428.7375 L365.2625,422.4875 L365.85,418.925 L366.15,419.8125 L369.425,415.65 L369.425,412.975 L372.7,406.125 L372.7,401.075 L373.2875,401.6625 L373.5125,401.6125 L373.5875,401.6625 L378.9375,400.175 L382.2125,397.2 L385.1875,392.45 L378.9375,400.175 L373.5125,401.6125 L372.7,401.075 L372.7,398.6875 L370.6125,396.0125 L374.475,391.55 L375.075,389.475 L377.75,389.175 L375.675,388.875 L374.1875,390.0625 L374.775,386.5 L376.5625,386.2 L374.775,385.9 L377.45,384.7125 L376.2625,384.1125 L378.05,383.225 L378.05,382.325 L381.025,382.325 L379.2375,382.0375 L381.025,380.8375 L379.5375,380.25 L380.725,378.4625 L381.325,379.0625 L381.325,377.8625 L382.5125,378.1625 L383.7,374.3 L385.1875,373.1125 L386.675,371.625 L386.375,370.725 L387.8625,369.5375 L388.7625,365.9625 L389.65,365.675 L388.4625,365.675 L391.1375,361.8 L391.1375,360.3125 L395.3,356.15 L403.3375,344.85 L407.2,341.275 L410.475,342.175 L415.825,340.6875 L421.1875,335.625 L425.35,336.5125 L428.325,337.1125 L433.0875,335.625 L432.4875,335.025 L434.275,333.5375 L435.7625,329.975 L436.3625,330.5625 L436.0625,329.675 L436.95,328.7875 L436.0625,329.075 L436.65,327.8875 L437.25,328.1875 L436.65,327 L438.1375,322.5375 L439.3375,321.35 L439.3375,322.5375 L439.625,321.35 L439.3375,322.8375 L439.925,321.05 L439.925,322.5375 L440.525,321.05 L442.0125,319.8625 L441.7125,321.6375 L442.6,319.2625 L442.9,320.15 L443.7875,315.9875 L444.3875,315.9875 L444.6875,314.5 L444.3875,315.1 L445.275,311.225 L444.3875,303.7875 L444.9875,302.9 L444.9875,300.225 L444.3875,300.8125 L444.6875,300.225 L445.575,298.4375 L444.6875,298.4375 L444.6875,300.225 L444.0875,295.7625 L443.5,296.65 L444.6875,287.725 L447.3625,275.2375 L447.3625,268.9875 L447.9625,266.9 L447.3625,267.2 L447.6625,255.6 L446.475,252.925 L446.475,248.4625 L446.175,243.1125 L444.6875,238.05 L442.3125,234.775 L438.4375,225.2625 L435.7625,216.0375 L431.9,192.5375 L425.35,176.175 L419.4,158.325 L416.125,150.2875 L414.3375,146.725 L413.15,146.425 L409.875,139.875 L410.775,140.175 L409.5875,136.0125 L409.5875,135.7125 L413.15,135.7125 L413.15,131.85 L415.2375,131.25 L421.1875,135.7125 L424.1625,139.2875 L425.35,140.775 L427.1375,142.85 L432.1875,151.475 L432.7875,152.675 L435.1625,155.65 L438.7375,163.0875 L442.0125,171.1125 L443.2,174.6875 L442.9,173.5 L443.5,175.275 L443.7875,175.275 L444.9875,178.55 L445.275,179.7375 L445.575,180.6375 L445.875,181.225 L445.875,181.825 L446.475,183.0125 L446.475,183.6125 L446.7625,183.9125 L446.7625,184.5 L447.3625,185.6875 L447.3625,186.2875 L447.9625,187.475 L447.9625,188.075 L448.25,188.6625 L448.25,189.2625 L448.85,190.45 L448.85,191.05 L449.15,191.6375 L449.15,192.2375 L449.7375,193.425 L449.7375,194.025 L450.0375,194.6125 L450.0375,195.2125 L450.3375,195.8 L450.3375,196.4 L450.7875,197.2875 L450.8125,197.3375 L450.9375,197.8875 L450.9375,198.1875 L451.0875,198.4625 L451.225,199.125 L451.225,199.375 L451.35,199.625 L451.525,200.3375 L451.525,200.5625 L451.625,200.7625 L451.825,201.5875 L451.825,201.75 L451.9,201.9 L452.125,202.825 L452.125,202.95 L452.175,203.075 L452.425,204.0625 L452.425,204.1375 L452.475,204.2125 L452.7125,205.275 L452.7125,204.725 L453.6125,208.3 L454.425,212.2625 L454.2,211.575 L454.425,212.8625 L454.5,213.0625 L454.5,212.5875 L455.1,215.4375 L455.4,216.925 L455.2,216.725 L455.1,216.3375 L455.1,216.625 L455.2,216.725 L455.25,216.925 L455.4,217.225 L455.4,217.525 L455.6875,218.4125 L455.9875,219.9 L456.8875,225.55 L457.25,228.775 L457.3,229.175 L457.475,230.6125 L457.675,231.875 L458.075,234.775 L458.25,236.0375 L458.375,237.425 L458.375,238.35 L458.475,238.55 L458.6625,240.725 L459.2625,248.7625 L459.2625,248.7875 L459.5625,249.65 L459.5625,251.7375 L459.8625,252.325 L459.8625,257.0875 L459.8625,258.275 L460.15,260.6625 L460.15,276.725 L459.8625,277.3125 L459.8625,283.2625 L459.5625,283.8625 L459.5625,287.1375 L459.2625,287.725 L459.2625,291 L458.9625,291.6 L458.9625,294.275 L458.6625,295.1625 L458.6625,296.95 L458.6625,297.25 L458.375,297.55 L458.375,299.625 L458.075,300.225 L458.075,302.0125 L458.075,302.3 L457.775,302.6 L457.775,303.7875 L457.775,304.3875 L457.475,304.9875 L457.475,306.475 L457.175,307.0625 L457.175,308.25 L456.8875,308.85 L456.8875,310.0375 L456.8875,310.3375 L456.5875,310.9375 L456.5875,312.125 L456.2875,312.7125 L456.2875,313.3125 L456.2875,313.9125 L455.9875,314.5 L455.9875,315.4 L455.6875,315.9875 L455.6875,317.175 L455.4,317.775 L455.4,318.375 L455.1,319.2625 L455.1,319.8625 L455.4,318.6625 L455.1,320.15 L455.1,319.9125 L451.825,333.5375 L450.6375,338.6 L449.45,342.4875 L449.45,343.0625 L449.15,343.6625 L449.15,344.25 L448.55,345.4375 L448.55,346.3375 L447.6625,348.125 L447.6625,348.3125 L447.6625,348.3375 L447.6625,348.7125 L447.3625,349.6 L447.0625,350.2 L447.0625,350.3 L447.0625,350.325 L447.0625,350.8 L446.475,351.9875 L446.475,352.2375 L446.475,352.2875 L446.475,352.875 L445.8,354.2375 L445.575,354.6625 L445.575,354.8625 L445.8,354.2375 L445.575,354.9625 L445.575,355.2625 L445.275,355.85 L444.9875,356.75 L444.3875,358.525 L443.2,361.5 L443.2,361.8 L442.6,362.9875 L442.9,362.7 L441.7125,365.325 L441.7125,365.675 L441.1125,366.8625 L440.825,367.75 L440.825,368.05 L440.525,368.35 L439.925,369.5375 L439.925,370.1375 L439.625,370.725 L439.3375,371.625 L438.1375,374 L438.1375,374.3 L436.65,377.275 L436.0625,378.7125 L436.0625,379.0625 L435.1625,380.8375 L433.675,383.8125 L433.6,383.8875 L433.0875,385.0125 L433.2125,384.6625 L433.0875,384.8875 L433.0875,384.9125 L433.0875,385.0125 L433.0875,385.3 L430.4125,390.6625 L428.625,394.225 L428.325,394.525 L427.4375,396.3125 L427.1375,396.6125 L425.65,399.5875 L425.35,399.8875 L425.05,400.475 L424.4625,401.075 L424.1625,401.9625 L423.8625,402.5625 L423.5625,402.85 L422.975,404.05 L422.675,404.3375 L421.775,406.125 L421.1875,407.025 L421.0375,407.175 L420.8875,407.6125 L420.2875,408.5125 L419.4,410 L419.35,410.05 L417.9125,412.375 L415.5375,415.65 L414.9375,416.8375 L408.9875,425.1625 L407.8,426.3625 L401.85,433.8 L400.6625,435.875 L397.3875,439.75 L397.0875,440.1375 L397.6875,439.45 L400.6625,435.875 L397.95,439.25 L398.575,438.85 L396.4875,441.2375 L396.2,441.525 L396.05,441.725 L395.925,441.85 L395,443.0125 L394.7125,443.3125 L395.375,442.475 L395,442.8875 L395.75,441.975 L395.3,442.425 L394.9625,442.8375 L395,442.725 L394.7125,443.0125 L395.9,441.525 L393.225,444.5 L392.325,445.1 L389.65,447.475 L389.0625,447.475 L386.375,449.8625 L382.5125,451.9375 L382.2125,451.05 L380.725,451.9375 L380.425,451.05 L378.65,451.9375 L377.45,453.125 L374.475,454.325 L371.2125,457.3 L370.3125,457.5875 Z M394.7125,443.0125 L393.5125,444.5 L393.125,445 L393.45,444.65 L392.725,445.5 L392.8,445.35 L390.8375,447.475 L390.55,447.775 L394.4125,443.3125 L394.7125,443.0125 Z M390.8375,447.475 L392.325,445.9875 L390.7625,447.625 L390.8375,447.475 Z M390.7625,447.625 L390.55,448.075 L390.175,448.275 L390.7625,447.625 Z M390.175,448.275 L389.825,448.625 L389.85,448.55 L389.875,448.525 L389.95,448.375 L390.175,448.275 Z M389.85,448.55 L389.475,448.9875 L389.825,448.625 L389.65,448.9625 L388.4625,450.1625 L387.8625,450.75 L387.8125,450.775 L389.0125,449.4875 L389.85,448.55 Z M392.325,445.9875 L392.7,445.55 L392.625,445.7 L392.325,445.9875 Z M393.45,444.65 L393.8125,444.2125 L394.4125,443.6125 L393.45,444.65 Z M394.4125,443.6125 L394.7875,443.1375 L394.7125,443.3125 L394.4125,443.6125 Z M394.7875,443.1375 L393.8125,444.2125 L393.5125,444.5 L394.9625,442.8375 L394.8375,443.0875 L394.7875,443.1375 Z M460.15,260.6625 L459.9875,258.525 L460.15,258.875 L460.15,260.6625 Z M459.5625,249.65 L459.3375,247.425 L459.5625,247.8625 L459.5625,249.65 Z M458.6625,240.725 L458.9625,241.325 L458.9625,243.7 L458.6625,240.725 Z M458.25,236.0375 L458.125,234.675 L458.375,236.2625 L458.375,236.9875 L458.25,236.0375 Z M454.5,212.5875 L454.425,212.2625 L454.5,212.4625 L454.5,212.5875 Z M452.7125,204.725 L452.475,204.2125 L452.425,204.0625 L452.425,203.5875 L452.7125,204.725 Z M452.175,203.075 L452.125,202.825 L452.125,202.425 L452.4,203.4875 L452.175,203.075 Z M452.125,202.425 L452.075,202.275 L452.125,202.35 L452.125,202.425 Z M452.075,202.275 L451.9,201.9 L451.825,201.5875 L451.825,201.2625 L452.075,202.275 Z M451.825,201.2625 L451.775,201.0375 L451.825,201.1625 L451.825,201.2625 Z M451.775,201.0375 L451.625,200.7625 L451.525,200.3375 L451.525,200.125 L451.775,201.0375 Z M451.525,200.125 L451.45,199.825 L451.525,199.975 L451.525,200.125 Z M451.45,199.825 L451.35,199.625 L451.225,199.125 L451.225,198.975 L451.45,199.825 Z M451.225,198.975 L451.1375,198.5875 L451.225,198.775 L451.225,198.975 Z M451.1375,198.5875 L451.0875,198.4625 L450.9375,197.8875 L450.9375,197.8125 L451.1375,198.5875 Z M450.9375,197.8125 L450.8125,197.3375 L450.9375,197.5875 L450.9375,197.8125 Z M381.325,457.3 L387.275,451.05 L387.7875,450.8 L387.275,451.35 L386.925,451.7625 L386.675,452.2375 L386.375,452.3875 L385.8375,453.0125 L385.7875,453.125 L385.7125,453.175 L385.4875,453.425 L384,454.9125 L383.4,455.5125 L382.2125,456.7 L381.9125,457 L381.8875,457 L381.8125,457.05 L381.325,457.3 Z M126.975,455.8125 L129.05,454.325 L128.7625,452.8375 L129.35,454.6125 L126.975,455.8125 Z M383.1375,455.6375 L384.175,454.575 L384.075,454.7375 L384.6,454.175 L384.5,454.225 L385.1125,453.575 L385.1875,453.425 L385.3125,453.35 L385.7875,452.8375 L385.1875,453.425 L384.6,454.025 L384.35,454.3 L384.5,454.225 L384.175,454.575 L384.275,454.4 L383.1375,455.6375 Z M47.25,455.5125 L47.8375,455.5125 L46.95,455.2125 L46.35,455.2125 L47.25,455.5125 Z M43.975,454.6125 L44.275,454.6125 L43.375,454.325 L42.7875,454.025 L42.1875,454.025 L43.975,454.6125 Z M120.725,454.025 L119.2375,451.9375 L121.025,451.35 L122.2125,452.5375 L120.725,454.025 Z M38.9125,453.125 L39.2125,453.125 L38.325,452.8375 L37.725,452.5375 L36.8375,452.2375 L36.5375,452.2375 L37.125,452.5375 L38.9125,453.125 Z M33.2625,451.35 L33.5625,451.35 L32.6625,451.05 L32.075,450.75 L31.175,450.45 L30.8875,450.45 L31.475,450.75 L33.2625,451.35 Z M122.5125,451.35 L121.325,450.75 L121.6875,450.25 L122.5125,451.35 Z M121.7375,450.175 L122.2125,449.5625 L122.8125,450.45 L121.7375,450.175 Z M26.125,448.9625 L26.425,448.9625 L25.525,448.675 L24.9375,448.375 L24.0375,448.075 L23.45,447.775 L22.55,447.475 L21.9625,447.1875 L21.3625,447.1875 L22.2625,447.475 L22.85,447.775 L24.6375,448.375 L25.2375,448.675 L26.125,448.9625 Z M107.6375,445.9875 L95.7375,442.725 L94.25,440.0375 L91.575,439.15 L95.1375,439.75 L100.7875,443.3125 L104.3625,443.6125 L105.25,443.3125 L103.175,442.725 L104.3625,442.125 L111.5,441.825 L116.5625,441.525 L118.6375,438.85 L122.2125,438.85 L122.8125,437.6625 L119.8375,435.575 L131.4375,437.0625 L135.3,438.55 L128.7625,439.45 L129.05,440.9375 L124,441.2375 L112.9875,445.7 L112.1,445.7 L107.6375,445.9875 Z M356.3375,445.1 L357.525,443.9125 L358.4125,445.1 L356.3375,445.1 Z M364.6625,444.5 L364.3625,443.9125 L365.2625,443.9125 L364.6625,444.5 Z M16.9,443.6125 L17.8,443.6125 L16.6,442.425 L16.9,443.6125 Z M360.2,443.3125 L360.2,442.725 L361.3875,442.425 L360.2,443.3125 Z M364.3625,443.3125 L363.775,441.825 L364.9625,441.825 L364.3625,443.3125 Z M140.3625,442.725 L137.3875,441.525 L139.7625,441.525 L140.3625,442.725 Z M10.0625,440.6375 L9.1625,439.75 L9.4625,439.15 L10.0625,440.6375 Z M99.3,440.6375 L99.0125,438.85 L101.0875,439.45 L100.5,440.6375 L99.3,440.6375 Z M140.95,437.9625 L137.975,436.775 L141.25,436.175 L140.65,434.6875 L142.4375,432.9 L134.4125,432.9 L133.2125,431.7125 L135.6,430.525 L143.625,432.0125 L146.3125,429.625 L147.5,431.1125 L149.875,432.9 L158.5,432.6 L159.9875,434.0875 L154.3375,435.575 L156.725,436.475 L154.0375,436.175 L153.15,437.6625 L140.95,437.9625 Z M171.8875,433.8 L164.75,433.5 L165.05,432.0125 L170.1125,432.3125 L171.8875,433.8 Z M122.8125,430.825 L116.5625,429.925 L118.9375,428.4375 L122.2125,428.7375 L125.7875,429.3375 L122.8125,430.825 Z M190.3375,427.25 L188.85,426.3625 L189.7375,425.1625 L191.525,426.0625 L190.3375,427.25 Z M24.6375,419.2125 L25.2375,418.625 L22.85,418.325 L24.6375,419.2125 Z M25.825,414.4625 L27.9125,413.8625 L28.2,413.8625 L26.425,413.5625 L26.125,412.375 L25.825,414.4625 Z M57.0625,413.5625 L59.4375,412.075 L56.7625,412.075 L57.0625,413.5625 Z M421.0875,407.025 L421.4875,406.425 L421.1875,406.725 L421.0875,407.025 Z M192.7125,404.9375 L189.4375,404.6375 L190.3375,402.85 L188.25,401.9625 L192.4125,402.2625 L192.7125,404.9375 Z M348.6,404.6375 L348.9,403.15 L350.0875,403.15 L348.6,404.6375 Z M80.8625,403.15 L81.45,401.9625 L79.375,402.2625 L80.8625,403.15 Z M82.65,401.9625 L86.5125,398.4 L82.65,398.9875 L82.65,401.9625 Z M186.175,400.475 L187.3625,396.3125 L189.4375,396.0125 L178.2875,393.0875 L186.4625,396.0125 L186.7625,397.2 L186.175,400.475 Z M171.3,393.0375 L174.7125,391.9 L178.1375,393.0375 L174.8625,391.85 L174.7125,391.9 L174.575,391.85 L171.3,392.7375 L167.725,391.55 L162.375,385.3 L164.1625,389.475 L167.725,391.85 L171.3,393.0375 Z M184.3875,392.45 L183.7875,388.575 L182.9,391.85 L184.3875,392.45 Z M433.2375,384.5625 L433.5,383.9875 L433.3875,384.1125 L433.2375,384.5625 Z M407.8,384.1125 L408.9875,382.325 L408.3875,382.325 L407.8,384.1125 Z M220.3875,380.25 L220.975,378.4625 L218.6,378.4625 L220.3875,380.25 Z M443.2,361.2625 L443.35,360.9125 L443.2,361.2125 L443.2,361.2625 Z M245.075,359.125 L241.8,358.825 L243.5875,357.3375 L245.075,359.125 Z M444.3875,358.2875 L444.7625,357.1625 L444.3875,357.9375 L444.3875,358.2875 Z M169.8125,357.9375 L179.925,357.9375 L189.7375,353.175 L197.175,345.4375 L204.3125,345.15 L208.4875,348.7125 L212.65,347.825 L215.625,350.5 L220.975,350.2 L222.4625,349.3125 L222.4625,348.125 L223.95,348.125 L231.0875,351.3875 L224.55,348.125 L220.3875,347.825 L218.6,342.7625 L219.4875,348.4125 L221.575,348.125 L217.4125,349.0125 L220.0875,349.0125 L217.4125,350.2 L212.65,347.525 L208.4875,348.4125 L203.425,344.25 L198.3625,345.15 L197.175,344.85 L188.55,341.575 L185.875,343.0625 L180.525,339.4875 L180.225,340.975 L181.7125,341.575 L175.1625,344.25 L174.8625,343.3625 L172.4875,346.925 L169.2125,348.125 L162.675,347.525 L159.1,343.0625 L154.0375,343.0625 L152.55,340.975 L153.45,340.3875 L151.3625,338.9 L151.2625,339.025 L151.0625,338.9 L149.2875,340.975 L143.925,341.275 L149.2875,341.275 L151.2625,339.025 L153.45,340.3875 L152.2625,340.6875 L154.0375,343.3625 L159.4,343.6625 L162.675,347.525 L171.8875,348.4125 L176.95,343.6625 L182.9,341.275 L185.875,343.0625 L188.25,341.875 L192.7125,343.3625 L193.3125,345.4375 L197.175,345.15 L194.5,346.0375 L189.4375,352.875 L180.225,357.3375 L167.425,357.3375 L169.8125,357.9375 Z M410.775,354.6625 L411.075,354.6625 L410.775,351.9875 L411.075,350.8 L411.6625,351.6875 L411.6625,349.6 L410.475,351.6875 L410.775,354.6625 Z M212.35,353.475 L215.925,352.575 L216.2125,351.0875 L212.35,353.475 Z M420.8875,353.175 L424.4375,346.0875 L424.3875,346.75 L424.3875,346.775 L424.1625,350.5 L424.825,343.8 L425.05,343.3625 L425.05,341.6 L424.75,342.4625 L424.75,343.95 L424.4625,344.55 L423.8625,345.15 L424.4625,344.85 L422.975,345.7375 L424.1625,345.7375 L422.375,348.125 L421.775,350.8 L420,351.6875 L421.4875,351.0875 L420.8875,353.175 Z M432.1875,352.2875 L432.4875,348.7125 L431.6,350.8 L432.1875,352.2875 Z M442.6,352.2875 L442.9,352.2875 L443.7875,349.0125 L444.0875,349.3125 L444.3875,347.825 L445.575,346.0375 L444.9875,345.4375 L442.6,352.2875 Z M236.15,350.2 L240.3125,349.9 L238.85,348.1625 L239.7125,346.925 L238.825,348.125 L238.85,348.1625 L237.6375,349.9 L237.0375,347.825 L236.15,350.2 Z M57.0625,347.525 L56.175,346.6375 L58.25,344.25 L56.4625,342.7625 L58.25,342.7625 L59.4375,343.95 L57.0625,347.525 Z M142.1375,343.6625 L136.7875,341.875 L138.275,342.7625 L137.3875,343.3625 L139.4625,343.0625 L142.1375,343.6625 Z M423.2625,342.7625 L425.05,340.975 L425.05,341.5 L425.175,340.2625 L425.35,340.0875 L425.35,338.6 L425.175,340.2625 L425.05,340.3875 L423.2625,342.7625 Z M436.65,340.3875 L437.85,336.5125 L438.7375,326.4 L437.85,336.225 L436.65,340.3875 Z M443.2,315.6875 L442.6,314.8 L443.2,313.6125 L443.2,315.6875 Z M445.575,294.275 L445.875,293.0875 L445.575,292.7875 L445.575,294.275 Z M456.8875,290.7 L458.375,287.725 L459.2625,277.9125 L458.075,287.725 L456.8875,289.2125 L456.2875,289.8125 L455.6875,288.325 L455.6875,284.4625 L453.3125,278.5125 L455.1,283.8625 L455.6875,289.2125 L456.5875,290.4125 L456.8875,290.7 Z M152.55,288.625 L154.0375,288.325 L158.5,284.4625 L157.3125,282.975 L156.425,285.05 L155.525,284.1625 L151.9625,286.2375 L152.55,288.625 Z M455.1,277.6125 L455.6875,277.6125 L455.4,276.125 L455.6875,274.9375 L455.1,273.15 L455.1,277.6125 Z M165.35,276.425 L166.2375,271.3625 L164.75,273.75 L165.35,276.425 Z M261.1375,272.85 L262.925,269.875 L261.7375,268.9875 L260.25,269.2875 L261.4375,271.3625 L259.95,271.075 L261.1375,272.85 Z M259.35,262.15 L259.05,261.25 L260.5375,259.175 L257.8625,261.55 L256.375,260.95 L258.7625,257.3875 L257.275,258.875 L256.075,258.275 L257.275,259.4625 L255.7875,261.85 L259.35,262.15 Z M242.4,250.8375 L245.075,250.8375 L244.775,249.35 L242.4,250.8375 Z M459.2625,246.675 L458.9875,244.075 L459.2625,244.5875 L459.2625,246.675 Z M458.6625,239.2375 L458.6125,238.8375 L458.6625,238.9375 L458.6625,239.2375 Z M203.425,233.8875 L214.1375,232.7 L201.3375,232.9875 L198.3625,223.775 L198.3625,221.3875 L198.075,218.4125 L197.775,218.0125 L197.775,217.825 L197.175,217.225 L196.2875,216.0375 L193.6125,212.4625 L194.5,206.8125 L193.3125,212.7625 L196.2875,216.3375 L196.2875,217.825 L196.5875,218.4125 L196.5875,221.3875 L197.775,221.3875 L198.075,224.6625 L198.9625,225.85 L201.05,232.9875 L203.425,233.8875 Z M457.175,230.0125 L456.5875,227.0375 L456.5875,227.3375 L456.8875,229.125 L457.175,230.0125 Z M457.175,229.725 L457.175,228.825 L456.8875,227.9375 L457.175,229.725 Z M455.4,219.0125 L454.8,216.925 L454.8,217.225 L455.4,219.0125 Z M187.3625,218.4125 L185.575,216.925 L184.3875,218.1125 L187.3625,218.4125 Z M454.8,214.55 L454.8,214.25 L454.55,213.525 L454.5,213.2375 L454.5,213.3625 L454.55,213.525 L454.675,214.2 L454.8,214.55 Z M454.0375,210.75 L453.9125,210.1375 L453.9125,210.3875 L454.0375,210.75 Z M225.1375,210.3875 L224.85,207.4125 L223.3625,207.7 L221.275,204.1375 L221.275,206.8125 L225.1375,210.3875 Z M453.8875,210.0125 L453.6125,208.6 L453.3125,207.5625 L453.3125,208.3 L453.6125,208.6 L453.6125,209.1875 L453.8875,210.0125 Z M214.1375,209.7875 L211.4625,208.3 L212.05,207.4125 L209.075,208 L208.775,208 L214.1375,209.7875 Z M453.2625,207.3625 L453.0125,206.5125 L452.7125,205.325 L453.0125,206.8125 L453.0125,207.1125 L453.2625,207.3625 Z M448.55,196.7 L448.85,195.8 L448.55,196.1 L447.0625,193.125 L448.55,196.7 Z M154.6375,171.7125 L156.725,170.225 L154.9375,169.925 L154.6375,171.7125 Z M150.775,170.525 L151.9625,169.625 L150.775,169.0375 L150.775,170.525 Z M147.2,166.65 L147.2,160.1125 L148.6875,159.8125 L150.175,161 L148.9875,166.65 L147.2,166.65 Z M152.55,155.9375 L151.3625,154.75 L152.85,153.8625 L152.55,155.9375 Z M429.8125,155.9375 L428.925,154.45 L429.2125,155.65 L428.625,154.1625 L428.925,155.65 L429.8125,155.9375 Z M148.9875,147.6125 L150.175,147.3125 L149.575,146.125 L148.9875,147.6125 Z M154.9375,147.3125 L159.9875,147.3125 L156.425,147.0125 L154.6375,144.9375 L154.9375,147.3125 Z M150.175,139.875 L149.575,137.8 L151.3625,137.8 L150.175,139.875 Z M155.525,139.2875 L156.725,137.5 L156.725,138.9875 L158.2125,136.3125 L155.525,136.9 L155.525,139.2875 Z M150.475,137.5 L150.775,134.825 L148.6875,134.825 L150.475,132.4375 L151.3625,135.125 L151.0625,132.15 L152.55,133.0375 L150.475,137.5 Z M155.825,132.4375 L159.7,132.15 L156.725,131.25 L157.0125,130.0625 L155.825,132.4375 Z M149.575,131.85 L150.175,130.3625 L150.775,131.85 L149.575,131.85 Z M198.3625,128.875 L198.3625,126.7875 L201.9375,127.0875 L201.3375,128.275 L200.45,127.0875 L198.3625,128.875 Z M198.3625,126.7875 L195.9875,125.3 L197.175,124.4125 L198.075,125.6 L199.2625,125.9 L198.3625,126.7875 Z M193.3125,128.575 L195.3875,127.0875 L193.3125,127.3875 L194.8,126.7875 L192.4125,125.6 L195.3875,125.9 L197.775,128.275 L195.3875,128.275 L193.3125,128.575 Z M170.4,123.225 L165.9375,122.025 L166.2375,119.65 L169.2125,119.65 L167.725,117.275 L171,115.7875 L170.1125,114.8875 L169.5125,116.075 L168.9125,115.1875 L165.35,116.675 L167.725,115.1875 L166.2375,114.8875 L165.9375,116.075 L162.9625,114.5875 L177.25,114 L181.4125,115.4875 L173.675,118.4625 L170.4,123.225 Z M159.7,122.025 L159.1,119.95 L160.5875,119.05 L159.9875,119.95 L162.675,122.025 L159.7,122.025 Z M154.0375,121.4375 L156.125,119.95 L159.1,119.35 L154.0375,121.4375 Z M159.1,119.35 L157.6125,117.8625 L159.4,116.675 L160.5875,117.5625 L159.7,116.675 L161.775,117.8625 L159.1,119.35 Z M166.2375,119.05 L165.35,117.275 L167.425,116.375 L166.2375,119.05 Z M163.2625,117.275 L163.5625,116.375 L165.35,116.075 L163.2625,117.275 Z M172.4875,114 L168.325,113.1 L170.4,111.6125 L169.8125,112.8125 L171.6,112.8125 L171.6,111.9125 L173.975,111.325 L171,113.4 L172.4875,114 Z M253.7,113.7 L257.5625,110.125 L257.275,112.8125 L253.7,113.7 Z M202.825,84.55 L201.9375,83.65 L204.9125,83.95 L202.825,84.55 Z M200.15,84.25 L194.5,82.4625 L192.4125,81.575 L188.25,78 L186.7625,78.3 L187.3625,76.8125 L183.7875,74.725 L183.7875,72.95 L182.0125,72.95 L182.6,70.8625 L180.525,71.75 L180.525,69.975 L182.6,70.2625 L181.4125,68.775 L182.6,67.8875 L179.625,64.3125 L180.525,63.125 L179.325,62.5375 L176.35,66.1 L173.975,64.9125 L174.8625,64.025 L173.375,64.025 L173.675,63.125 L168.025,62.5375 L169.8125,61.6375 L171.8875,60.45 L170.4,59.2625 L173.975,58.9625 L171.3,56.875 L176.0625,55.6875 L177.55,52.7125 L169.8125,54.5 L168.025,53.0125 L169.8125,51.525 L167.425,52.7125 L166.8375,52.7125 L156.425,51.225 L155.525,52.7125 L147.2,50.0375 L145.4125,50.3375 L146.0125,50.925 L143.625,52.125 L140.0625,50.925 L138.275,50.0375 L137.3875,48.25 L140.3625,46.4625 L143.925,46.4625 L142.4375,45.875 L147.5,42.6 L143.625,42.3 L144.825,41.1125 L141.85,43.4875 L139.7625,42.9 L140.3625,41.1125 L132.925,41.4125 L129.35,39.625 L128.1625,39.325 L122.8125,38.4375 L124.8875,34.275 L124.8875,30.40375 L123.1,30.40375 L125.7875,28.91625 L126.375,28.61875 L126.975,25.94125 L129.05,25.64375 L129.35,22.96625 L131.1375,22.96625 L133.5125,21.77625 L132.625,19.9925 L136.1875,19.3975 L136.7875,18.8025 L139.1625,17.315 L140.95,17.0175 L144.225,13.15 L144.225,12.555 L144.825,10.77 L148.3875,8.6875 L150.775,8.985 L152.55,8.39 L151.0625,7.795 L146.0125,7.795 L144.525,8.0925 L144.525,7.795 L142.1375,8.0925 L140.95,8.39 L139.7625,8.39 L138.575,8.6875 L135,9.2825 L133.8125,9.8775 L129.05,10.4725 L126.675,11.0675 L126.675,9.8775 L131.1375,8.39 L131.1375,8.0925 L131.1375,7.795 L131.4375,7.795 L135.6,6.605 L136.1875,6.3075 L144.225,4.5225 L142.7375,4.82 L145.1125,4.225 L147.2,3.9275 L145.7125,4.225 L147.5,3.9275 L154.3375,2.7375 L156.025,2.49 L156.05,2.49 L156.125,2.44 L156.325,2.44 L157.8375,2.2175 L157.9125,2.1425 L158.3125,2.1425 L160.2875,1.845 L161.1875,1.845 L162.475,1.72125 L162.9875,1.6475 L163.2625,1.5475 L163.5625,1.5475 L165.7,1.325 L165.9375,1.25 L166.5375,1.25 L169.0875,1.0025 L169.2125,0.9525 L169.5125,0.9525 L172.4875,0.655 L173.675,0.655 L177.15,0.4075 L177.25,0.3575 L177.8375,0.3575 L181.1125,0.3575 L183.45,0.11 L183.475,0.11 L183.4875,0.06 L183.7875,0.06 L190.925,0.06 L190.925,0.135 C194.65,0.08625 198.1875,0.12875 201.5125,0.23375 L201.4125,0.135 L201.3875,0.135 L200.75,0.06 L201.3375,0.06 L201.3625,0.11 L201.3875,0.11 L203,0.28375 C204.6375,0.345 206.1375,0.44625 207.6375,0.53125 L206.1,0.3575 L207.5875,0.3575 L207.6875,0.4075 L211.1625,0.655 L209.975,0.655 C210.8375,0.71125 211.5875,0.7675 212.4,0.82875 L212.35,0.80375 L212.1,0.73 L211.1625,0.655 L212.05,0.655 L212.25,0.755 L214.2875,0.9525 L213.9625,0.9525 C214.375,0.98625 214.8375,1.0175 215.225,1.0525 L214.2875,0.9525 L215.325,0.9525 L215.7,1.07625 L215.75,1.10125 C215.8875,1.11375 215.9875,1.11375 216.1125,1.12625 L215.625,0.9525 L215.925,0.9525 L216.9375,1.20125 L217.3625,1.25 C217.375,1.25125 217.3875,1.24875 217.4125,1.25 L218.9,1.25 L219.2375,1.42375 L219.3125,1.42375 L220.525,1.5475 L220.3125,1.5475 C220.7,1.59 221,1.63125 221.35,1.67125 L221.15,1.5975 L220.525,1.5475 L221.275,1.5475 L221.9375,1.67125 L223.65,1.845 L223.95,1.845 L224.25,1.845 L224.325,1.92 L224.85,2.01875 L225.5875,2.1425 L226.625,2.1425 L226.925,2.1425 L227,2.2175 L228.1125,2.44 L228.4125,2.44 L229.0125,2.44 L234.8125,3.3325 L234.9625,3.3325 L235.2125,3.3825 L236.7375,3.63 L239.525,4.225 L240.3125,4.225 L241.5,4.5225 L242.9875,4.82 L244.175,5.1175 L247.15,5.7125 L248.35,6.01 L249.8375,6.3075 L251.025,6.605 L252.5125,6.9025 L253.3,7.10125 L254,7.2 L256.375,7.795 L257.8625,8.0925 L260.25,8.6875 L261.7375,9.2825 L262.925,9.58 L264.4125,9.8775 L265.6,10.175 L267.0875,10.77 L268.275,11.0675 L269.7625,11.365 L270.95,11.96 L272.15,12.2575 L273.6375,12.555 L274.825,13.15 L276.3125,13.4475 L277.5,14.0425 L278.6875,14.34 L280.175,14.935 L281.3625,15.2325 L282.5625,15.8275 L277.275,15.8525 L280.475,17.315 L281.3625,17.91 L285.5375,19.695 L286.725,19.9925 L291.775,22.66875 L292.375,23.85875 L288.8,22.66875 L291.475,24.15625 L290.5875,24.15625 L289.4,23.56125 L288.5,23.56125 L291.1875,25.04875 L289.7,24.75125 L288.2125,26.53625 L285.825,26.53625 L282.5625,25.94125 L282.2625,25.94125 L282.85,26.23875 L284.9375,27.13125 L284.6375,27.42875 L289.7,30.70125 L288.8,30.70125 L285.825,29.80875 L285.825,30.40375 L288.2125,31.89125 L284.9375,31.59375 L284.05,32.18875 L281.6625,33.375 L282.85,36.05 L283.15,36.35 L283.75,38.1375 L282.2625,39.025 L284.3375,40.225 L280.475,39.925 L280.175,39.925 L277.8,42.9 L277.5,42.9 L275.7125,42.6 L273.0375,46.175 L276.1625,48.775 L276.3125,48.85 L276.6125,49.15 L275.7125,49.4375 L273.6375,47.6625 L270.95,47.3625 L269.7625,47.3625 L263.5125,48.55 L263.225,49.7375 L256.675,48.55 L254,47.3625 L251.6125,47.95 L247.45,47.3625 L246.2625,48.25 L242.4,46.175 L240.9125,45.575 L230.2,43.2 L228.4125,41.7125 L221.875,40.225 L219.4875,40.225 L216.2125,38.7375 L212.65,39.925 L211.75,40.225 L210.8625,39.925 L210.5625,40.5125 L207.2875,39.625 L193.6125,47.6625 L191.225,48.55 L193.9,53.0125 L193.9,54.8 L192.7125,61.9375 L193.3125,62.825 L194.2,64.3125 L195.9875,67.8875 L194.2,68.1875 L192.4125,72.95 L194.2,76.5125 L197.475,81.875 L198.6375,82.2375 L197.775,81.575 L198.3625,80.3875 L200.45,80.975 L199.0625,82.3625 L201.3375,83.0625 L200.15,84.25 Z M189.15,81.575 L188.85,80.0875 L190.3375,81.275 L189.15,81.575 Z M187.6625,80.975 L185.875,79.4875 L188.25,79.7875 L188.55,79.7875 L187.6625,80.975 Z M180.225,72.95 L178.1375,69.675 L179.925,70.2625 L180.225,72.95 Z M135.6,44.0875 L137.3875,42.6 L139.7625,42.3 L138.575,43.4875 L135.6,44.0875 Z" id="path16036" fill="#F9F8EB"></path>
                    <g id="g6217" transform="translate(55.685000, 109.860125)" fill="#4F9DA6">
                        <path d="M63.3001575,279.918672 L62.087415,277.70573 L60.2995575,277.030595 L62.26245,273.867462 L61.0747125,263.75294 L63.1501275,262.865262 L62.56251,261.677525 L59.886975,257.214132 L56.31126,255.726335 L56.31126,252.75074 L53.935785,252.15062 L54.5234025,249.775145 L49.75995,247.987287 L49.4723925,247.687227 L49.75995,246.19943 L50.06001,245.311752 L49.75995,245.011692 L47.684535,242.336157 L48.5722125,241.435977 L45.8966775,239.360562 L45.8966775,233.709432 L48.8722725,232.221635 L49.75995,233.99699 L50.36007,234.59711 L51.2477475,233.109313 L49.75995,229.533597 L44.40888,224.782647 L46.4967975,218.831457 L45.2965575,217.0436 L50.36007,214.368065 L55.1235225,208.116815 L58.986795,200.377768 L61.66233,194.726638 L68.5137,185.499793 L67.91358,183.124318 L70.3015575,179.848663 L73.86477,176.573008 L90.5306025,169.13402 L95.8816725,164.08301 L97.06941,156.644023 L97.66953,150.092713 L95.8816725,140.27825 L97.06941,131.651525 L94.093815,114.985693 L95.5816125,110.5223 L95.294055,109.92218 L94.093815,107.246645 L95.8816725,93.5564075 L92.0184,77.490695 L90.2305425,76.3029575 L93.2061375,67.0761125 L91.71834,59.937185 L93.5061975,57.8492675 L92.9060775,56.96159 L95.294055,58.4493875 L96.7818525,57.8492675 L97.66953,58.7494475 L95.8816725,56.36147 L97.96959,55.4737925 L97.66953,53.985995 L96.1817325,54.8736725 L97.66953,53.385875 L96.4817925,53.985995 L96.1817325,49.8226625 L97.66953,48.334865 L96.1817325,46.8470675 L98.8572675,45.35927 L96.1817325,42.383675 L98.5572075,41.483495 L96.1817325,41.1959375 L96.1817325,39.70814 L97.66953,40.5958175 L96.7818525,36.732545 L95.5816125,38.2203425 L93.8062575,37.9202825 L95.294055,38.2203425 L94.093815,38.2203425 L94.693935,39.70814 L93.8062575,38.5079 L92.6060175,39.40808 L91.41828,39.10802 L93.5061975,38.5079 L92.6060175,37.0201025 L91.043205,35.682335 L92.6060175,36.732545 L93.2061375,35.2447475 L94.993995,35.532305 L96.1817325,33.75695 L94.693935,32.55671 L96.4817925,32.55671 L94.093815,31.6690325 L97.06941,32.2691525 L99.1573275,30.781355 L97.66953,31.0689125 L98.8572675,29.581115 L94.693935,30.481295 L97.36947,28.9934975 L95.8816725,28.10582 L97.06941,27.5057 L96.4817925,24.830165 L97.36947,25.7178425 L99.1573275,23.6424275 L97.06941,23.929985 L97.96959,22.4421875 L98.8572675,21.25445 L96.4817925,21.55451 L98.5572075,20.95439 L98.8572675,18.878975 L99.7574475,20.95439 L100.645125,19.7666525 L98.8572675,18.878975 L98.26965,18.578915 L100.045005,17.978795 L99.7574475,15.90338 L101.532803,14.4155825 L101.245245,15.90338 L102.132923,14.4155825 L101.245245,16.4909975 L103.62072,15.60332 L100.945185,16.7910575 L102.132923,17.978795 L101.832863,16.4909975 L103.92078,15.60332 L103.32066,12.927785 L103.32066,14.7156425 L103.0206,13.227845 L102.733043,14.4155825 L102.132923,14.4155825 L101.532803,14.4155825 L100.645125,14.4155825 L101.245245,11.4399875 L103.32066,12.627725 L107.196435,12.627725 L108.084113,10.5398075 L106.596315,8.7644525 L106.896375,9.95219 L105.108518,9.35207 L108.684233,7.5642125 L108.97179,12.327665 L113.435183,14.4155825 L116.12322,14.1155225 L114.035303,16.7910575 L112.247445,16.7910575 L114.035303,17.0911175 L112.247445,18.878975 L114.92298,22.7422475 L114.335363,23.3423675 L113.735243,24.530105 L114.635423,23.3423675 L114.92298,23.0423075 L116.12322,23.3423675 L116.12322,23.6424275 L116.710838,27.5057 L122.07441,32.2691525 L121.77435,35.2447475 L118.498695,35.832365 L115.5231,39.70814 L117.310958,43.2713525 L122.07441,44.75915 L122.361968,50.1227225 L125.637623,53.0983175 L123.262148,54.586115 L125.337563,55.1737325 L126.237743,53.685935 L128.013098,54.8736725 L127.42548,56.96159 L125.050005,55.4737925 L122.962088,56.96159 L122.662028,62.91278 L127.12542,61.1249225 L132.188933,62.31266 L132.188933,69.46409 L133.37667,68.86397 L132.188933,71.539505 L136.652325,70.6518275 L140.515598,71.539505 L146.166728,72.7272425 L149.742443,74.5151 L153.018098,79.8786725 L153.018098,82.2541475 L150.63012,84.042005 L151.5303,87.0176 L146.166728,91.1809325 L147.066908,97.1321225 L146.766848,93.2563475 L149.142323,90.8808725 L155.393573,88.5053975 L163.13262,89.393075 L169.671428,96.5320025 L171.459285,102.183133 L176.822858,108.434383 L175.922678,110.22224 L178.598213,107.846765 L172.059405,100.407778 L177.410475,104.87117 L180.68613,109.92218 L182.761545,112.897775 L186.93738,116.17343 L188.712735,122.72474 L187.524998,126.588013 L189.912975,129.863668 L188.425178,130.751345 L190.500593,130.163728 L193.476188,133.72694 L198.83976,137.002595 L202.703033,137.002595 L207.466485,140.565808 L210.74214,139.67813 L212.817555,141.165928 L212.817555,139.67813 L217.280948,139.37807 L217.581008,141.465988 L222.0444,143.253845 L221.74434,145.62932 L227.107913,152.468188 L227.99559,153.955985 L229.183328,159.619618 L231.858863,162.295153 L235.434578,184.612115 L236.022195,185.799853 L236.922375,183.711935 L238.710233,184.912175 L247.924575,195.914375 L253.288148,202.753243 L254.175825,208.116815 L252.688028,215.855863 L251.20023,217.931278 L244.94898,219.419075 L239.29785,225.970385 L232.759043,230.733838 L222.932078,231.921575 L217.881068,234.89717 L211.329758,231.021395 L211.929878,233.99699 L213.717735,235.19723 L210.74214,234.89717 L213.117615,236.685028 L211.629818,239.64812 L209.5419,237.872765 L209.254343,240.24824 L208.354163,239.360563 L208.954283,240.24824 L207.466485,239.94818 L206.278748,241.736038 L205.678628,240.5483 L205.378568,242.336158 L204.79095,241.435978 L200.327558,244.111513 L200.027498,243.223835 L197.051903,244.111513 L194.963985,240.84836 L196.751843,240.24824 L195.264045,239.64812 L194.076308,241.135917 L190.200533,236.972585 L191.400773,239.94818 L186.0372,239.360562 L193.176128,240.84836 L195.564105,245.89937 L186.33726,247.387167 L184.249343,243.523895 L184.249343,245.59931 L182.173928,243.823955 L182.173928,245.89937 L180.08601,243.823955 L181.873868,247.687227 L188.425178,253.038297 L187.524998,253.038297 L188.425178,255.126215 L184.549403,257.214132 L181.873868,266.428475 L180.68613,267.328655 L180.38607,265.840857 L177.410475,269.70413 L168.48369,274.167522 L154.793453,274.467582 L149.142323,278.930975 L147.654525,276.843057 L148.554705,280.718832 L145.866668,283.394367 L141.703335,285.769842 L140.515598,286.069902 L137.540003,286.069902 L137.540003,289.345557 L133.964288,291.420972 L130.701135,290.833355 L130.101015,291.721032 L128.313158,293.20883 L126.67533,294.196527 L124.749945,293.50889 L118.198635,291.721032 L112.847565,294.10901 L104.22084,292.90877 L103.0206,295.884365 L97.66953,296.484485 L95.8816725,299.46008 L94.993995,297.084605 L96.7818525,297.372163 L96.7818525,296.484485 L95.294055,296.784545 L88.742745,293.50889 L90.2305425,290.233235 L91.11822,289.345558 L90.8306625,287.5577 L87.8550675,286.369963 L86.06721,289.345558 L86.6548275,289.945678 L88.742745,292.90877 L86.9548875,296.484485 L91.11822,298.572403 L88.442685,300.0602 L81.0036975,294.996688 L77.140425,294.696628 L76.540305,293.20883 L74.16483,293.50889 L72.0769125,292.321153 L70.0014975,289.345558 L70.0014975,288.745438 L70.3015575,286.670023 L64.3503675,282.50669 L64.937985,279.818653 L63.3001575,279.918673 Z M103.32066,12.627725 L102.432983,10.8398675 L103.62072,10.5398075 L103.32066,12.627725 Z M91.043205,35.682335 L90.8306625,35.532305 L90.8556675,35.5073 L91.043205,35.682335 Z M90.8556675,35.5073 L90.5306025,35.2447475 L91.71834,34.6446275 L90.8556675,35.5073 Z M48.8722725,232.221635 L49.4723925,231.021395 L49.75995,231.921575 L50.36007,232.509192 L49.75995,232.221635 L48.8722725,232.221635 Z M130.701135,290.533295 L131.888873,286.369962 L133.964288,286.069902 L122.812058,283.144317 L130.988693,286.069902 L131.288753,287.25764 L130.701135,290.533295 Z M115.82316,283.094307 L119.236343,281.95658 L122.662028,283.094307 L119.386373,281.90657 L119.236343,281.95658 L119.098815,281.90657 L115.82316,282.794247 L112.247445,281.60651 L106.896375,275.35526 L108.684233,279.531095 L112.247445,281.90657 L115.82316,283.094307 Z M128.913278,282.50669 L128.313158,278.630915 L127.42548,281.90657 L128.913278,282.50669 Z M164.920478,270.30425 L165.508095,268.516392 L163.13262,268.516392 L164.920478,270.30425 Z M189.612915,249.175025 L186.33726,248.874965 L188.125118,247.387167 L189.612915,249.175025 Z M114.335363,247.987287 L124.449885,247.987287 L134.264348,243.223835 L141.703335,235.484787 L148.842263,235.19723 L153.018098,238.760442 L157.18143,237.872765 L160.157025,240.5483 L165.508095,240.24824 L166.995893,239.360562 L166.995893,238.172825 L168.48369,238.172825 L175.622618,241.435977 L169.08381,238.172825 L164.920478,237.872765 L163.13262,232.809252 L164.020298,238.460382 L166.108215,238.172825 L161.944883,239.060502 L164.620418,239.060502 L161.944883,240.24824 L157.18143,237.572705 L153.018098,238.460382 L147.954585,234.29705 L142.891073,235.19723 L141.703335,234.89717 L133.07661,231.621515 L130.401075,233.109312 L125.050005,229.533597 L124.749945,231.021395 L126.237743,231.621515 L119.686433,234.29705 L119.386373,233.409372 L117.010898,236.972585 L113.735243,238.172825 L107.196435,237.572705 L103.62072,233.109312 L98.5572075,233.109312 L97.06941,231.021395 L97.96959,230.433777 L95.8816725,228.94598 L95.7816525,229.071005 L95.5816125,228.94598 L93.8062575,231.021395 L88.442685,231.321455 L93.8062575,231.321455 L95.7816525,229.071005 L97.96959,230.433777 L96.7818525,230.733837 L98.5572075,233.409372 L103.92078,233.709432 L107.196435,237.572705 L116.410778,238.460382 L121.47429,233.709432 L127.42548,231.321455 L130.401075,233.109312 L132.77655,231.921575 L137.239943,233.409372 L137.840063,235.484787 L141.703335,235.19723 L139.0278,236.084907 L133.964288,242.923775 L124.749945,247.387167 L111.947385,247.387167 L114.335363,247.987287 Z M156.88137,243.523895 L160.457085,242.623715 L160.744643,241.135917 L156.88137,243.523895 Z M180.68613,240.24824 L184.849463,239.94818 L183.38667,238.210332 L184.249343,236.972585 L183.361665,238.172825 L183.38667,238.210332 L182.173928,239.94818 L181.573808,237.872765 L180.68613,240.24824 Z M1.5628125,237.572705 L0.675135,236.685027 L2.75055,234.29705 L0.9626925,232.809252 L2.75055,232.809252 L3.9382875,233.99699 L1.5628125,237.572705 Z M86.6548275,233.709432 L81.3037575,231.921575 L82.791555,232.809252 L81.9038775,233.409372 L83.9792925,233.109312 L86.6548275,233.709432 Z M97.06941,178.660925 L98.5572075,178.360865 L103.0206,174.497592 L101.832863,173.009795 L100.945185,175.08521 L100.045005,174.197533 L96.4817925,176.272948 L97.06941,178.660925 Z M109.87197,166.458485 L110.759648,161.394972 L109.27185,163.78295 L109.87197,166.458485 Z M205.678628,162.88277 L207.466485,159.907175 L206.278748,159.019498 L204.79095,159.319558 L205.978688,161.394973 L204.49089,161.107415 L205.678628,162.88277 Z M203.89077,152.18063 L203.59071,151.28045 L205.078508,149.205035 L202.402973,151.58051 L200.915175,150.98039 L203.303153,147.417177 L201.815355,148.904975 L200.615115,148.304855 L201.815355,149.492592 L200.327558,151.88057 L203.89077,152.18063 Z M186.93738,140.865867 L189.612915,140.865867 L189.312855,139.37807 L186.93738,140.865867 Z M147.954585,123.912477 L158.669228,122.72474 L145.866668,123.012298 L142.891073,113.797955 L142.891073,111.409978 L142.603515,108.434383 L142.303455,108.034303 L142.303455,107.846765 L141.703335,107.246645 L140.815658,106.058908 L138.140123,102.483193 L139.0278,96.8320625 L137.840063,102.783253 L140.815658,106.358968 L140.815658,107.846765 L141.115718,108.434383 L141.115718,111.409978 L142.303455,111.409978 L142.603515,114.685632 L143.491193,115.87337 L145.57911,123.012297 L147.954585,123.912477 Z M131.888873,108.434382 L130.101015,106.946585 L128.913278,108.134322 L131.888873,108.434382 Z M169.671428,100.407777 L169.38387,97.4321825 L167.896073,97.71974 L165.808155,94.1565275 L165.808155,96.8320625 L169.671428,100.407777 Z M158.669228,99.8076575 L155.993693,98.31986 L156.58131,97.4321825 L153.605715,98.0198 L153.305655,98.0198 L158.669228,99.8076575 Z M99.1573275,61.7250425 L101.245245,60.237245 L99.4573875,59.937185 L99.1573275,61.7250425 Z M95.294055,60.537305 L96.4817925,59.637125 L95.294055,59.0495075 L95.294055,60.537305 Z M91.71834,56.66153 L91.71834,50.1227225 L93.2061375,49.8226625 L94.693935,51.0104 L93.5061975,56.66153 L91.71834,56.66153 Z M97.06941,45.9468875 L95.8816725,44.75915 L97.36947,43.8714725 L97.06941,45.9468875 Z M93.5061975,37.6202225 L94.693935,37.3201625 L94.093815,36.132425 L93.5061975,37.6202225 Z M99.4573875,37.3201625 L104.508398,37.3201625 L100.945185,37.0201025 L99.1573275,34.9446875 L99.4573875,37.3201625 Z M94.693935,29.881175 L94.093815,27.80576 L95.8816725,27.80576 L94.693935,29.881175 Z M100.045005,29.2935575 L101.245245,27.5057 L101.245245,28.9934975 L102.733043,26.3179625 L100.045005,26.90558 L100.045005,29.2935575 Z M94.993995,27.5057 L95.294055,24.830165 L93.2061375,24.830165 L94.993995,22.4421875 L95.8816725,25.130225 L95.5816125,22.15463 L97.06941,23.0423075 L94.993995,27.5057 Z M100.345065,22.4421875 L104.22084,22.15463 L101.245245,21.25445 L101.532803,20.0667125 L100.345065,22.4421875 Z M94.093815,21.85457 L94.693935,20.3667725 L95.294055,21.85457 L94.093815,21.85457 Z M142.891073,18.878975 L142.891073,16.7910575 L146.466788,17.0911175 L145.866668,18.278855 L144.97899,17.0911175 L142.891073,18.878975 Z M142.891073,16.7910575 L140.515598,15.30326 L141.703335,14.4155825 L142.603515,15.60332 L143.791253,15.90338 L142.891073,16.7910575 Z M137.840063,18.578915 L139.915478,17.0911175 L137.840063,17.3911775 L139.32786,16.7910575 L136.939883,15.60332 L139.915478,15.90338 L142.303455,18.278855 L139.915478,18.278855 L137.840063,18.578915 Z M114.92298,13.227845 L110.459588,12.027605 L110.759648,9.65213 L113.735243,9.65213 L112.247445,7.276655 L115.5231,5.7888575 L114.635423,4.8886775 L114.035303,6.076415 L113.435183,5.1887375 L109.87197,6.676535 L112.247445,5.1887375 L110.759648,4.8886775 L110.459588,6.076415 L107.483993,4.5886175 L121.77435,4.001 L125.937683,5.4887975 L118.198635,8.4643925 L114.92298,13.227845 Z M104.22084,12.027605 L103.62072,9.95219 L105.108518,9.05201 L104.508398,9.95219 L107.196435,12.027605 L104.22084,12.027605 Z M98.5572075,11.4399875 L100.645125,9.95219 L103.62072,9.35207 L98.5572075,11.4399875 Z M103.62072,9.35207 L102.132923,7.8642725 L103.92078,6.676535 L105.108518,7.5642125 L104.22084,6.676535 L106.296255,7.8642725 L103.62072,9.35207 Z M110.759648,9.05201 L109.87197,7.276655 L111.947385,6.376475 L110.759648,9.05201 Z M107.784053,7.276655 L108.084113,6.376475 L109.87197,6.076415 L107.784053,7.276655 Z M117.010898,4.001 L112.847565,3.10082 L114.92298,1.6130225 L114.335363,2.8132625 L116.12322,2.8132625 L116.12322,1.9130825 L118.498695,1.325465 L115.5231,3.40088 L117.010898,4.001 Z M198.23964,3.70094 L202.102913,0.125225 L201.815355,2.8132625 L198.23964,3.70094 Z" id="path6219"></path>
                    </g>
                </g>
            </g>
        </g>
    </g>
</svg>
